<svg width="322" height="322" viewBox="0 0 322 322" fill="none" xmlns="http://www.w3.org/2000/svg">
<path d="M168.841 2.99293C174.766 3.63698 180.177 1.64041 186.554 2.54209C195.443 2.54209 202.593 7.50131 210.193 10.9792C212.641 12.0741 215.668 10.3995 218.245 11.4944C229.066 13.2978 237.568 20.64 246.071 27.9822C259.211 30.2364 265.201 38.6091 271.964 48.7208C285.555 55.4833 294.316 70.8762 297.794 81.1167C307.005 90.5843 311.578 101.984 311.9 114.801C312.673 120.018 316.731 123.882 318.277 128.777C321.497 136.57 320.853 146.359 319.307 154.796C322.915 165.81 323.494 179.399 317.311 189.382C316.087 195.501 317.568 203.616 315.314 209.863C314.219 218.88 305.91 224.87 303.977 233.629C301.723 241.1 299.404 248.957 292.576 254.174C287.101 258.296 284.589 263.964 282.013 269.438C280.982 270.662 279.565 271.435 278.985 272.98C273.124 276.523 268.679 283.221 261.465 283.672C261.787 289.79 249.871 299.065 238.535 303.444C234.348 305.119 229.775 305.892 225.394 307.437C215.089 314.779 202.721 317.356 189.259 317.034C181.208 319.61 172.899 321.606 163.816 321.928C156.602 322.701 151.449 316.905 144.106 319.288C130.837 320.834 120.66 315.037 109.968 310.271C98.5025 309.691 88.3253 305.312 80.9179 295.909C74.2835 292.56 66.2963 292.366 61.079 285.926C56.3769 281.611 53.8648 275.814 50.1933 271.048C39.1144 265.187 29.3237 254.174 25.3946 242.517C21.2722 237.493 16.0548 232.534 14.5089 226.286C10.3866 219.588 12.8342 210.25 8.4542 203.68C2.52827 194.535 -0.0482172 181.976 3.17239 171.091C3.43004 164.973 0.467083 159.498 0.145022 153.444C-0.756749 144.878 2.72151 137.021 5.74888 129.421C3.49445 116.604 8.58302 104.882 16.3125 95.2215C18.2448 84.4014 23.5911 74.7405 32.2223 66.8831C38.4059 59.8629 40.4026 50.5241 48.8406 45.1785C51.9968 41.765 56.6989 40.9277 60.306 38.1583C64.8793 36.4837 67.4558 31.8465 71.0629 28.6263C73.9614 25.8568 77.2464 22.6366 80.7247 20.64C89.4847 18.4502 97.9227 15.2944 105.523 10.2707C113.575 6.72844 122.593 5.37593 131.997 5.31152C142.11 -1.32223 157.762 -1.32223 168.841 2.99293Z" fill="#2B2549"/>
<path d="M18.6956 161.044C18.6956 238.781 82.5281 302.092 161.047 302.092C239.565 302.092 303.398 238.846 303.398 161.044C303.398 83.3065 239.565 19.996 161.047 19.996C82.5281 19.996 18.6956 83.2421 18.6956 161.044ZM23.5909 161.044C23.5909 85.9471 85.2334 24.8264 161.047 24.8264C236.86 24.8264 298.567 85.9471 298.567 161.044C298.567 236.141 236.86 297.261 161.047 297.261C85.2334 297.261 23.5909 236.141 23.5909 161.044Z" fill="#E8A958"/>
<path d="M163.108 5.5692C163.43 7.69458 160.982 7.56576 159.823 8.59625C146.941 14.586 133.672 20.2536 119.115 22.379C118.47 22.057 117.311 22.379 117.311 21.3485C119.437 17.5486 123.495 15.6808 126.522 12.5894C136.184 4.79633 149.324 1.57606 161.884 4.60312C162.464 4.66752 162.786 5.24717 163.108 5.5692Z" fill="#E8A958"/>
<path d="M199.693 9.36907C200.337 10.1419 201.625 10.786 201.174 12.0097C190.418 15.6808 179.145 16.3248 167.422 17.5485C162.592 17.7418 156.859 18.1282 152.286 16.5825C151.384 16.3248 151.384 15.3588 152.092 14.7791C160.659 10.3351 169.355 6.53523 179.145 5.31152C186.231 5.37593 193.445 6.79285 199.693 9.36907Z" fill="#E8A958"/>
<path d="M124.718 9.24025L123.945 11.0436C112.286 21.9281 100.048 31.5889 86.0059 36.8058C85.6839 36.8058 85.555 36.4837 85.233 36.6126C84.9753 34.3584 86.7789 32.2974 88.3892 30.6229C96.1186 18.3858 108.228 10.2707 121.69 8.27417C122.721 8.5962 124.074 8.01655 124.718 9.24025Z" fill="#E8A958"/>
<path d="M237.116 25.0196C237.245 25.6636 236.988 26.3721 236.344 26.5653C219.339 26.05 212.125 25.2772 198.92 21.7993C196.794 20.7688 190.546 20.5756 188.679 18.9655C188.356 17.6129 189.902 17.2909 190.675 16.9689C204.009 13.8774 220.885 12.3961 232.092 21.2196C233.896 22.2501 235.893 23.1518 237.116 25.0196Z" fill="#E8A958"/>
<path d="M90.8377 23.023C79.6943 34.8092 72.5446 50.8462 57.5365 58.3816H56.7636C56.1839 54.3885 59.018 51.1682 60.3707 47.6259C65.8457 36.1617 76.989 25.084 89.3562 21.4129L90.9021 21.6061V23.023H90.8377Z" fill="#E8A958"/>
<path d="M242.206 29.7856C251.932 31.6534 261.143 37.5787 267.005 46.3378C267.263 47.2395 266.812 48.3344 265.781 48.1412C249.871 44.148 234.67 36.999 220.757 29.3348C220.113 28.5619 220.95 27.6602 221.788 27.5314C228.615 27.7246 235.443 28.8195 242.206 29.7856Z" fill="#E8A958"/>
<path d="M59.79 42.6023C59.0171 45.6937 57.3423 48.4632 55.732 51.1682C49.0976 62.3103 47.4229 75.7067 36.8593 84.8522C35.8287 85.3031 36.2151 84.0794 35.8287 83.6285C36.0219 67.0764 43.2361 51.297 58.0509 42.0226C58.7594 42.0226 59.6612 41.7006 59.79 42.6023Z" fill="#E8A958"/>
<path d="M274.284 54.002C282.142 58.8968 290.644 66.4323 292.255 75.5778C291.675 76.4795 290.773 75.5778 290 75.5778C276.86 67.4628 262.367 60.4426 252.061 47.8191C251.739 47.5615 251.933 47.0463 251.868 46.5954C253.994 45.9514 256.377 47.0462 258.374 47.6259C263.591 49.8801 269.324 50.8462 274.284 54.002Z" fill="#E8A958"/>
<path d="M34.7339 71.0695C33.2524 83.3065 31.5777 95.5435 26.7467 106.428C25.845 110.228 24.9432 113.899 22.1735 116.862C21.0785 117.055 21.0785 115.767 20.692 115.058C18.2443 98.1841 21.0141 81.5031 33.0591 69.7814C34.0897 69.4593 34.4118 70.2966 34.7339 71.0695Z" fill="#E8A958"/>
<path d="M287.359 77.8321C298.695 84.5946 306.103 96.1876 307.327 108.618C307.133 109.262 306.296 109.713 305.781 109.197C294.766 97.7333 282.464 86.5268 275.7 73.1949C275.7 72.744 275.571 72.2932 276.022 72.1C280.274 72.744 283.494 75.8355 287.359 77.8321Z" fill="#E8A958"/>
<path d="M299.984 107.072C309.388 116.604 316.924 126.523 316.795 140.112C316.473 142.109 317.568 144.234 315.765 145.458L314.992 145.265C306.232 131.933 298.18 118.214 293.349 103.272L293.543 101.727C296.634 101.855 297.858 105.204 299.984 107.072Z" fill="#E8A958"/>
<path d="M15.7321 103.981C17.0848 117.635 19.0816 132.319 16.3118 145.78C16.1186 146.553 15.7321 147.776 14.8303 147.969C7.55176 134.96 6.52117 116.153 14.5083 103.143C15.0236 102.886 15.4745 103.53 15.7321 103.981Z" fill="#E8A958"/>
<path d="M308.807 140.434C316.794 152.542 321.947 168.773 316.472 183.457C316.15 184.101 315.313 184.23 314.862 183.908C309.258 168.901 305.007 153.315 303.976 136.441C304.17 135.99 304.17 135.217 304.749 135.089C306.875 136.183 307.39 138.631 308.807 140.434Z" fill="#E8A958"/>
<path d="M7.55149 140.37C10.7077 154.603 16.7624 167.484 15.8607 183.392C13.413 183.715 13.413 180.301 11.6095 179.013C8.45326 174.44 7.48707 169.223 5.10382 164.328C2.8494 158.21 3.4291 150.997 3.87999 144.556C4.78176 143.01 5.10383 133.8 7.55149 140.37Z" fill="#E8A958"/>
<path d="M308.808 174.44C313.832 187.45 316.859 204.582 309.13 217.27C308.357 218.171 307.648 219.266 306.296 219.266L305.716 218.751C303.784 207.609 303.397 195.372 304.492 183.521C304.943 179.657 304.299 175.084 306.747 172.186C307.97 172.25 308.099 173.667 308.808 174.44Z" fill="#E8A958"/>
<path d="M5.87699 173.989C13.542 188.094 22.6242 201.555 26.2957 217.205C26.5533 217.849 26.1024 218.429 25.2651 218.171C17.9221 211.989 10.9656 204.517 8.90436 195.565C5.42611 189.575 4.84639 182.362 4.78198 175.02C4.91081 174.505 5.3617 173.861 5.87699 173.989Z" fill="#E8A958"/>
<path d="M301.916 209.283C302.818 214.372 302.625 220.361 302.947 225.642C301.852 230.537 301.143 235.625 298.889 240.069C296.055 244.513 293.736 249.988 288.776 252.886C288.325 252.886 288.003 252.886 287.746 252.435C288.776 240.778 291.031 229.507 294.38 218.88C295.862 214.436 297.729 210.314 300.242 206.321C301.723 206.256 301.594 208.189 301.916 209.283Z" fill="#E8A958"/>
<path d="M16.8919 215.209C29.0014 224.548 39.1141 236.334 46.1995 249.022C46.3283 249.601 46.1995 250.245 45.6198 250.245C32.1576 244.9 19.3396 232.212 15.6681 218.236C15.5393 217.205 15.024 214.371 16.8919 215.209Z" fill="#E8A958"/>
<path d="M286.779 238.652C285.684 254.11 281.304 269.567 266.618 277.94C265.716 278.262 264.492 278.133 264.17 277.167C269.001 263.255 275.056 249.923 285.04 238.137C285.555 237.429 286.779 237.622 286.779 238.652Z" fill="#E8A958"/>
<path d="M60.3061 264.286C63.4623 267.828 67.8424 270.082 70.0324 274.075C68.9374 275.428 67.4559 274.269 66.1032 274.269C61.5944 272.272 56.4414 271.692 52.1902 268.923C44.5896 264.608 36.7957 258.038 33.7683 249.666C33.8971 249.022 33.8971 247.991 34.7989 247.991C43.9454 252.049 51.9326 258.682 60.3061 264.286Z" fill="#E8A958"/>
<path d="M265.136 265.252C263.655 271.95 260.885 277.94 257.729 283.929C251.803 292.688 242.721 297.519 233.832 301.061C233.123 300.932 232.286 301.383 231.771 300.739C232.544 297.261 235.571 294.749 237.825 291.98C244.331 281.417 253.671 272.079 263.848 264.736C264.428 264.736 264.75 264.93 265.136 265.252Z" fill="#E8A958"/>
<path d="M83.3654 282.963C89.0981 285.604 94.4443 289.211 99.9837 292.302C99.9837 292.753 100.757 293.075 100.241 293.526C91.8034 294.621 83.623 292.753 76.2156 290.499C69.3879 286.828 61.0787 283.285 57.3428 275.492C57.214 275.041 57.5361 274.591 57.987 274.462C66.8758 276.265 74.7985 280.258 83.3654 282.963Z" fill="#E8A958"/>
<path d="M133.606 302.929C134.508 303.509 134.701 304.732 133.478 305.054C121.948 307.824 107.648 308.854 97.0847 303.509C93.9285 302.027 90.257 300.353 88.3246 297.004C89.5485 295.909 91.6097 296.81 93.0267 296.231C107.326 296.617 121.175 298.163 133.606 302.929Z" fill="#E8A958"/>
<path d="M204.46 300.095C201.111 305.312 195.056 307.759 190.354 311.688C181.143 316.712 169.356 319.159 158.47 316.454C157.697 316.325 157.375 315.101 158.019 314.651C171.932 307.566 186.425 301.898 202.141 299.193C202.979 299.193 203.881 299.193 204.46 300.095Z" fill="#E8A958"/>
<path d="M168.196 305.956C169.097 306.407 169.226 307.308 168.389 307.953C156.601 313.749 142.238 319.545 128.453 314.522C126.006 313.749 123.622 312.976 121.497 311.302C121.304 310.4 122.077 309.627 122.721 309.498C137.535 306.858 152.672 303.831 168.196 305.956Z" fill="#E8A958"/>
<path d="M237.826 286.055L237.504 288.051C228.422 301.061 215.282 312.396 199.243 313.491C198.599 313.298 197.568 313.298 197.246 312.268C200.531 307.566 205.684 304.925 210.064 301.448C218.116 294.685 227.327 289.661 236.666 285.668C237.053 285.733 237.633 285.604 237.826 286.055Z" fill="#E8A958"/>
<path d="M98.1159 75.5779C98.76 76.2863 98.9533 76.9304 98.6956 77.5744C98.438 78.1541 97.7294 78.9913 96.57 80.0218C95.6038 80.9235 94.6376 81.6964 93.8003 82.4692C92.9629 83.1777 92.1256 83.8861 91.417 84.5302L81.8196 82.9201C81.3687 82.8557 81.1111 82.7913 80.9823 82.7913C80.7246 82.7913 80.467 82.9201 80.2093 83.1133C79.694 83.5641 79.7584 84.1438 80.4025 84.8522C80.9823 85.4319 81.6908 85.9471 82.657 86.2691C82.8502 86.3335 83.3011 86.3336 84.0096 86.2047C84.5249 86.1403 84.9758 86.3335 85.3623 86.72C85.7488 87.1708 85.8776 87.7505 85.7488 88.5233C85.6199 89.2318 85.2979 89.8114 84.7826 90.2623L79.4364 95.0283C78.7278 95.6723 78.0193 96.0588 77.3108 96.252C76.409 96.5096 75.636 96.3164 75.1207 95.7367C74.8631 95.4147 74.7987 95.0283 74.7987 94.5774C74.7987 94.3198 74.9275 93.869 75.0563 93.2893C74.4766 92.1944 73.7037 90.9707 72.7375 89.6826C71.7069 88.3301 70.6763 87.042 69.5169 85.8183C68.2286 84.4014 67.1336 83.2421 66.103 82.3404C65.1369 81.4387 64.3639 80.8591 63.7842 80.6015C62.6892 81.0523 61.7874 80.9879 61.0789 80.2794C60.5636 79.6998 60.4348 78.9269 60.7568 77.9608C61.0789 76.9948 61.723 76.0931 62.6248 75.2558L66.4251 71.8423C67.0692 71.2627 67.7778 70.8763 68.6151 70.7474C69.3881 70.5542 70.0966 70.683 70.6119 71.2627C70.8695 71.5203 71.0628 71.9067 71.1272 72.2932C71.1916 72.6796 71.1272 73.1948 70.934 73.7101C71.1272 74.2253 71.4493 74.8694 71.7713 75.449C72.0934 76.0287 72.4798 76.4795 72.8019 76.866C73.1884 77.3168 73.5104 77.4456 73.6393 77.2524C74.1546 76.6727 74.4122 75.7067 74.4122 74.3541C74.4122 73.0016 74.1546 71.9067 73.7037 71.0051L72.0934 70.2322C71.3848 69.5881 71.256 68.7509 71.6425 67.7848C71.9645 67.0119 72.6087 66.2391 73.5104 65.4018L77.6328 61.6663C78.1481 61.2154 78.7922 60.9578 79.5008 60.8934C80.2737 60.829 80.8534 60.9578 81.2399 61.4087C81.884 62.1171 81.884 63.0188 81.1111 63.9205C80.4025 64.7577 79.694 65.595 78.9855 66.4323C78.6634 67.5916 78.4702 68.8153 78.4702 70.039C78.4702 71.3915 78.6634 72.3576 79.1787 72.8084C79.372 73.0016 80.4025 73.2592 82.3349 73.5169C83.6876 73.7745 85.8132 74.0321 88.7117 74.2897C91.095 74.5474 93.2206 74.805 95.0885 74.9338C95.7971 74.6118 96.3124 74.483 96.6988 74.5474C97.343 74.8694 97.7294 75.0626 98.1159 75.5779Z" fill="white"/>
<path d="M113.703 65.9171C114.154 66.6255 113.768 67.5272 112.608 68.6221C111.835 69.3305 110.676 70.1678 108.937 71.1983L107.842 71.8424C106.167 72.8084 104.879 73.4525 103.913 73.6457C102.496 73.9677 101.529 73.7101 100.95 72.6796C100.692 72.2932 100.756 71.8424 101.079 71.2627C101.787 69.9746 101.916 68.8797 101.336 67.9136C100.885 67.2052 100.177 65.9815 99.275 64.3069C98.3732 62.6324 97.6647 61.4731 97.2138 60.6358L96.8273 60.0562L96.5052 59.5409C95.7323 58.3172 95.1526 57.4155 94.6373 56.8359C94.122 56.1918 93.2202 55.8054 91.932 55.6122C91.2879 55.5478 90.9014 55.3546 90.7081 55.0325C90.2573 54.3241 90.3861 53.5512 90.9014 52.7784C91.6099 51.7479 93.0914 50.5886 95.3458 49.2361L96.5697 48.5276C98.18 47.5615 99.3394 46.9819 100.048 46.7887C101.272 46.4666 102.109 46.7242 102.689 47.6259C103.011 48.0768 103.075 48.6564 102.882 49.2361C102.496 50.5886 102.367 51.4258 102.56 51.7479C103.011 52.4563 103.526 53.4224 104.106 54.5173C105.394 57.0291 106.231 58.5104 106.618 59.1545C106.94 59.7341 107.455 60.507 108.228 61.6019C109.001 62.6324 109.517 63.4053 109.774 63.7917C110.096 64.1781 110.805 64.5001 111.835 64.7578C112.673 65.0154 113.381 65.4018 113.703 65.9171Z" fill="white"/>
<path d="M182.818 56.7715C182.753 57.7375 182.174 58.3816 181.014 58.7036C179.855 59.0256 178.051 59.1545 175.539 59.0256C172.769 58.8968 170.644 58.6392 169.227 58.3172C167.81 57.9952 167.101 57.4155 167.166 56.385C167.166 55.8054 167.745 55.2901 168.776 54.8393C169.291 54.6461 169.549 54.3241 169.549 54.002C169.613 53.2936 169.162 52.7783 168.325 52.5207C167.488 52.2631 166.328 52.0699 164.782 52.0055L163.752 51.941C162.013 51.8766 160.853 51.9411 160.402 52.1343C159.951 52.3275 159.629 52.9071 159.629 53.7444C159.629 54.0664 160.016 54.3885 160.724 54.7105C161.497 55.0325 161.884 55.4834 161.884 56.063C161.819 57.5443 159.951 58.1884 156.28 57.9952C154.154 57.8664 152.673 57.6731 151.836 57.2867C150.998 56.9647 150.612 56.385 150.676 55.6122C150.741 55.1613 150.805 54.7749 150.998 54.5173C151.256 54.2596 151.578 54.1308 152.093 54.1308C152.931 54.1952 154.219 52.8427 155.829 50.1377C157.117 48.0767 158.47 45.3717 159.887 42.0226C161.175 38.9956 161.884 37.1278 161.884 36.3549C162.013 33.1991 163.559 31.6534 166.328 31.8466C168.647 31.9754 170.902 34.0363 173.092 38.0939C174.058 39.8328 175.604 43.5684 177.858 49.3004C179.404 53.358 180.628 55.3545 181.465 55.4189C182.367 55.4189 182.818 55.8698 182.818 56.7715ZM167.939 47.1751C167.939 46.5954 167.617 45.6293 166.844 44.2124C166.135 42.7955 165.555 42.087 165.104 42.087C164.654 42.087 164.138 42.7311 163.43 44.0192C162.721 45.3073 162.399 46.2734 162.335 46.7886C162.335 46.9818 162.592 47.1751 163.172 47.3039C163.752 47.4327 164.46 47.5615 165.169 47.6259C166.006 47.6903 166.65 47.6903 167.101 47.6259C167.617 47.5615 167.874 47.3683 167.939 47.1751Z" fill="white"/>
<path d="M221.788 49.3004C221.53 50.0089 220.757 50.4597 219.598 50.6529C218.953 50.7818 218.567 50.975 218.374 51.2326C217.665 52.2631 217.021 53.5512 216.313 55.0325C215.668 56.5138 214.896 58.5104 213.994 60.8934C212.448 65.0154 211.353 67.5916 210.58 68.6221C209.871 69.6525 209.098 70.039 208.325 69.7169C207.617 69.4593 206.522 67.978 205.04 65.2086C203.752 62.6968 202.464 60.1849 201.176 57.6087C199.694 54.8393 198.599 53.2936 197.826 53.036C197.504 52.9071 197.182 53.1004 196.86 53.4868C196.538 53.8732 196.28 54.4529 195.958 55.2257C195.636 56.063 195.443 56.9003 195.314 57.7375C195.185 58.5748 195.185 59.3477 195.25 59.9273C195.701 60.4426 196.023 60.8934 196.152 61.2154C196.409 61.7307 196.474 62.1815 196.28 62.5679C195.894 63.2764 195.25 63.6628 194.412 63.7917C193.317 63.9849 191.9 63.7272 190.161 63.0832C188.937 62.6324 187.907 62.0527 187.134 61.4087C186.168 60.5714 185.846 59.7985 186.103 59.0901C186.232 58.768 186.554 58.446 187.069 58.1884C187.134 58.124 187.714 57.9308 188.744 57.5443C189.582 56.2562 190.226 54.9681 190.87 53.68C191.514 52.3919 192.029 51.0394 192.544 49.6869C193.06 48.3343 193.382 47.1107 193.639 45.9514C193.897 44.7921 194.026 43.5039 194.09 42.0226C194.026 41.8938 193.704 41.3786 192.995 40.5413C192.544 39.9616 192.351 39.4464 192.544 39.06C192.867 38.1583 193.768 37.7075 195.121 37.7719C196.152 37.8363 197.44 38.0939 198.921 38.6735C199.179 38.7379 199.437 38.8668 199.694 38.9312C199.952 38.9956 200.145 39.1244 200.403 39.1888C201.047 39.4464 201.627 39.7684 202.077 40.2193C202.528 40.6701 203.044 41.3786 203.623 42.4735C204.525 44.2768 205.427 46.0802 206.393 47.8191C207.488 49.8801 208.197 51.2326 208.583 51.8767C209.227 52.9071 209.743 53.5512 210.065 53.6156C210.773 53.8732 211.353 53.2936 211.933 51.8122C212.126 51.3614 212.255 50.8462 212.319 50.3953C212.448 49.8801 212.577 49.4292 212.577 49.1072C212.641 48.7208 212.383 48.1411 211.804 47.4971C211.224 46.853 211.031 46.209 211.288 45.5649C211.61 44.6632 212.448 44.2768 213.801 44.4056C214.638 44.47 215.668 44.7277 216.828 45.1141C217.086 45.2429 217.279 45.2429 217.279 45.2429C217.343 45.2429 217.408 45.2429 217.408 45.3073C217.472 45.3073 217.601 45.3717 217.73 45.4361C217.858 45.5005 218.052 45.5649 218.245 45.5649C219.276 45.9514 220.113 46.3378 220.628 46.7886C221.788 47.6903 222.045 48.4632 221.788 49.3004Z" fill="white"/>
<path d="M228.357 79.571C227.842 80.215 226.876 80.215 225.394 79.571C224.492 79.1201 223.204 78.3473 221.658 77.188L220.692 76.4795C219.146 75.3202 218.051 74.3541 217.536 73.5813C216.698 72.422 216.634 71.3915 217.343 70.4898C217.6 70.1034 218.116 69.9746 218.695 70.1034C220.177 70.2966 221.207 69.9746 221.916 69.0729C222.431 68.3644 223.333 67.2695 224.492 65.8526C225.716 64.4357 226.554 63.3408 227.133 62.5679L227.584 61.9883L227.906 61.5375C228.744 60.3782 229.388 59.4765 229.774 58.768C230.161 58.0596 230.225 57.0935 229.903 55.8054C229.774 55.2257 229.774 54.7749 229.967 54.4529C230.483 53.8088 231.191 53.5512 232.157 53.8088C233.381 54.0664 234.992 54.9681 237.117 56.5782L238.212 57.4155C239.694 58.5104 240.66 59.4121 241.111 59.9917C241.884 60.9578 241.948 61.8595 241.304 62.6968C240.982 63.1476 240.467 63.4052 239.822 63.4696C238.405 63.5984 237.568 63.7916 237.375 64.1137C236.859 64.8221 236.215 65.595 235.378 66.5611C233.574 68.6865 232.415 70.039 231.964 70.5542C231.578 71.0695 230.998 71.8423 230.289 72.9372C229.581 74.0321 229.066 74.7406 228.808 75.127C228.55 75.5778 228.55 76.3507 228.744 77.3812C228.872 78.2829 228.744 79.0557 228.357 79.571Z" fill="white"/>
<path d="M252.704 95.2215C250.708 97.0249 248.324 97.6689 245.555 97.1537C242.785 96.6384 240.208 95.0927 237.89 92.5165C234.862 89.1674 233.316 86.3336 233.316 84.015C233.316 82.1472 234.347 80.2794 236.408 78.4117C237.439 77.51 238.34 77.3812 238.985 78.1541C239.307 78.5405 239.242 79.893 238.727 82.276C238.212 84.5946 238.791 86.6556 240.466 88.4589C241.046 89.103 241.69 89.5538 242.334 89.747C242.978 89.9403 243.493 89.8759 243.88 89.5538C244.395 89.103 244.266 87.7505 243.558 85.4963C242.527 82.4048 241.883 80.215 241.754 78.9913C241.497 76.2863 242.27 74.1609 244.073 72.5508C245.941 70.8763 248.196 70.2322 250.836 70.6186C253.477 71.0051 255.796 72.2932 257.857 74.5474C258.437 75.1914 259.017 75.9643 259.468 76.8016C259.919 77.6388 260.434 78.5405 260.949 79.5066C261.078 79.6354 261.336 79.8286 261.658 79.9574C262.044 80.1506 262.302 80.3439 262.495 80.5371C263.139 81.2455 263.268 82.4692 262.753 84.0794C262.302 85.5607 261.658 86.72 260.885 87.4284C260.369 87.9437 259.79 88.1369 259.081 88.2013C258.437 88.2013 257.922 88.0081 257.471 87.5573C257.02 87.042 256.762 85.7539 256.762 83.6285C256.762 81.5032 256.311 79.9574 255.41 78.9913C254.959 78.4761 254.443 78.1541 253.864 78.0253C253.348 77.9608 252.898 78.0897 252.447 78.4761C251.738 79.1202 251.803 80.4727 252.704 82.598C254.057 85.7539 254.83 87.8149 255.023 88.781C255.41 91.3572 254.637 93.4826 252.704 95.2215Z" fill="white"/>
<path d="M147.456 34.0363C147.585 34.4228 147.327 35.0668 146.812 35.9041C146.361 36.6125 146.039 37.7718 145.781 39.5108L143.849 54.9037C143.591 56.9647 143.205 58.3172 142.882 59.0256C142.56 59.7341 141.981 60.1205 141.208 60.3781C139.92 60.7002 138.567 59.9273 137.085 58.1884C136.635 57.6087 135.475 55.9342 133.607 53.1003C132.383 51.297 131.482 50.4597 130.902 50.5885C130.387 50.7173 130 51.8766 129.807 54.0664C129.485 57.5443 129.227 59.6053 129.098 60.1849C128.583 62.4391 127.681 63.7272 126.393 64.0492C125.62 64.2425 124.976 64.2425 124.461 63.9848C123.945 63.7272 123.366 63.1476 122.786 62.3103L111.771 46.9818C111.192 46.1445 110.419 45.6293 109.581 45.4361C109.002 45.3073 108.615 44.8564 108.422 44.0836C108.229 43.3107 108.615 42.5378 109.517 41.8938C110.483 41.1853 111.965 40.6057 113.961 40.0904C116.409 39.5108 118.084 39.2532 119.05 39.382C120.016 39.4464 120.596 39.9616 120.854 40.7989C120.918 41.0565 120.854 41.5718 120.66 42.3446C120.596 42.7311 120.531 42.9887 120.596 43.2463C120.725 43.6971 121.369 44.8564 122.657 46.6598C124.074 48.7208 124.976 49.6868 125.427 49.558C126.071 49.3648 126.457 48.4631 126.522 46.7886C126.522 46.2089 126.522 45.3717 126.457 44.2768C126.264 43.5683 125.556 42.8599 124.332 42.2802C123.108 41.6362 122.464 41.0565 122.335 40.4769C121.949 38.9956 124.074 37.643 128.712 36.4837C131.095 35.9041 132.834 35.6465 133.929 35.7109C135.089 35.7753 135.733 36.1617 135.926 36.9346C135.99 37.2566 135.797 37.9007 135.282 38.6735C135.024 39.06 134.895 39.4464 135.024 39.7684C135.282 40.6701 136.055 41.8938 137.472 43.3751C138.889 44.8564 139.726 45.5649 140.048 45.5005C140.499 45.3717 140.821 44.3412 141.079 42.409C141.337 40.4125 141.401 39.0599 141.208 38.2871C141.079 37.8362 140.628 37.5786 139.791 37.5142C138.953 37.3854 138.438 36.999 138.245 36.1617C138.052 35.4533 138.309 34.8736 139.018 34.294C139.726 33.7787 140.95 33.3279 142.754 32.877C145.523 32.233 147.069 32.6194 147.456 34.0363Z" fill="white"/>
<path d="M33.6394 147.583C32.8021 147.454 32.3512 146.617 32.2223 145.071C32.1579 144.105 32.2868 142.688 32.5444 140.756L32.7376 139.597C32.9953 137.729 33.3818 136.376 33.7682 135.539C34.348 134.316 35.1853 133.736 36.3447 133.865C36.7956 133.929 37.1177 134.251 37.3753 134.831C37.8906 136.183 38.6636 136.892 39.7586 137.085C40.5959 137.214 41.8842 137.407 43.7521 137.729C45.5557 138.051 46.9083 138.309 47.8101 138.437L48.4542 138.566L49.0339 138.631C50.451 138.824 51.4816 138.953 52.2545 138.888C53.0275 138.888 53.9293 138.437 54.831 137.6C55.2819 137.214 55.6684 137.021 55.9905 137.085C56.8278 137.214 57.3431 137.729 57.6008 138.631C57.9228 139.726 57.9228 141.593 57.6008 144.105L57.4075 145.458C57.1499 147.261 56.8922 148.485 56.5702 149.129C56.1193 150.224 55.3463 150.674 54.3157 150.546C53.736 150.481 53.2851 150.159 52.9631 149.708C52.1901 148.549 51.6104 147.969 51.2884 147.905C50.451 147.776 49.4204 147.583 48.261 147.39C45.5557 146.81 43.881 146.553 43.2368 146.424C42.5927 146.359 41.6909 146.231 40.4027 146.166C39.1145 146.102 38.2771 146.037 37.8262 145.973C37.3109 145.973 36.6668 146.359 35.8294 146.939C34.9277 147.39 34.2191 147.647 33.6394 147.583Z" fill="white"/>
<path d="M55.6685 186.097C54.8955 186.162 54.187 185.711 53.5429 184.745C53.2208 184.23 52.8343 183.972 52.5123 183.908C51.3528 183.714 49.9358 183.65 48.2611 183.65C46.6508 183.714 44.5896 183.843 42.1419 184.037C37.8263 184.423 35.0566 184.487 33.8971 184.23C32.6733 184.036 32.0936 183.521 31.9648 182.748C31.9004 182.04 32.8021 180.43 34.6057 178.047C36.2804 175.857 38.0195 173.732 39.7586 171.542C41.6266 169.094 42.5284 167.549 42.464 166.776C42.464 166.454 42.1419 166.196 41.6266 166.132C41.1113 166.003 40.4672 166.003 39.6942 166.067C38.8569 166.132 38.0195 166.261 37.1822 166.518C36.3448 166.776 35.7007 167.033 35.1854 167.356C34.9277 167.935 34.6701 168.386 34.4124 168.708C34.0904 169.159 33.7039 169.352 33.253 169.416C32.4801 169.352 31.9004 168.966 31.3851 168.257C30.8054 167.356 30.4189 166.067 30.29 164.264C30.1612 162.976 30.2256 161.817 30.5477 160.915C30.8698 159.756 31.4495 159.176 32.2224 159.112C32.5445 159.112 32.9954 159.24 33.3818 159.627C33.4462 159.691 33.8327 160.078 34.6057 160.851C36.0872 161.044 37.5042 161.108 38.9213 161.108C40.3384 161.108 41.7554 161.044 43.1725 160.915C44.5896 160.786 45.8134 160.593 46.9728 160.4C48.1322 160.142 49.3561 159.756 50.6443 159.176C50.7087 159.047 51.0308 158.532 51.4817 157.63C51.8037 156.986 52.1902 156.6 52.5767 156.6C53.5429 156.535 54.2514 157.115 54.7667 158.339C55.1532 159.24 55.4108 160.464 55.5396 162.01C55.5396 162.267 55.604 162.525 55.604 162.783C55.604 163.04 55.6685 163.298 55.7329 163.491C55.7973 164.135 55.7329 164.779 55.5396 165.423C55.3464 166.003 54.8955 166.776 54.187 167.678C52.9631 169.223 51.7393 170.769 50.5155 172.315C49.0984 174.054 48.2611 175.277 47.8102 175.857C47.166 176.887 46.844 177.532 46.844 177.918C46.9084 178.626 47.6813 178.948 49.1628 178.82C49.6781 178.755 50.1934 178.691 50.6443 178.562C51.1596 178.498 51.5461 178.369 51.9326 178.24C52.319 178.176 52.7055 177.66 53.0276 176.888C53.414 176.115 53.8649 175.728 54.509 175.599C55.4108 175.535 56.1193 176.115 56.5702 177.338C56.8279 178.111 57.0855 179.077 57.1499 180.301C57.1499 180.559 57.2144 180.752 57.2144 180.752C57.2144 180.816 57.2144 180.816 57.2144 180.881C57.2144 180.945 57.2144 181.074 57.2144 181.203C57.2144 181.331 57.2144 181.525 57.2788 181.718C57.3432 182.813 57.3432 183.65 57.1499 184.294C57.0855 185.453 56.5058 186.033 55.6685 186.097Z" fill="white"/>
<path d="M73.1236 248.12C72.3506 248.7 71.1268 249.279 69.5165 249.794C67.5841 250.374 66.2959 250.31 65.7806 249.666C65.5229 249.344 65.2653 248.957 64.9432 248.506C64.2347 247.347 63.7194 246.574 63.4617 246.252L53.6067 234.208C52.7693 233.178 52.7693 232.341 53.6067 231.697C53.9931 231.374 54.6373 231.374 55.3458 231.697C56.1187 232.019 56.8917 232.019 57.6646 231.632C58.502 231.246 59.3393 230.73 60.3699 230.086C61.3361 229.442 62.4311 228.605 63.7838 227.575C67.5197 224.612 69.6453 222.487 70.225 221.263C70.3538 220.941 70.3538 220.361 70.0962 219.653C69.8385 218.944 69.9674 218.365 70.4827 218.043C71.0624 217.592 71.6421 217.463 72.1574 217.721C72.6727 217.978 73.4456 218.751 74.4762 219.975L80.4666 227.253C81.6904 228.734 82.721 229.893 83.6227 230.73C84.3313 231.31 84.9754 231.954 85.7483 232.534C86.1992 233.113 86.1992 233.951 85.7483 235.046C85.2975 236.14 84.5889 237.107 83.5583 237.944C82.2057 239.039 81.1107 239.039 80.3377 238.073C79.9512 237.557 79.8868 236.978 80.1445 236.205C80.7886 234.466 80.0801 232.341 78.0833 229.893C77.3103 228.927 76.6662 228.412 76.1509 228.283C75.7 228.154 75.1203 228.412 74.4118 228.991L71.9641 230.924C71.32 231.439 71.0624 231.825 71.0624 232.083C71.1268 232.341 71.4488 232.92 72.093 233.757C72.6727 234.466 73.51 234.466 74.6695 233.822C75.8289 233.178 76.6662 233.178 77.2459 233.757C77.6968 234.273 77.6324 235.046 77.1815 235.947C76.6662 236.849 75.7645 237.879 74.4118 238.91C73.0591 240.005 71.8353 240.713 70.7403 240.971C69.6453 241.293 68.8079 241.164 68.3571 240.649C68.035 240.198 68.2282 239.49 69.0012 238.459C69.7741 237.429 69.7741 236.463 68.9368 235.432C68.5503 234.981 68.2282 234.788 67.8418 234.917C67.4553 234.981 66.8756 235.303 66.1026 235.883C64.2991 237.364 63.2685 238.33 63.1397 238.91C62.9464 239.49 63.3973 240.456 64.4923 241.744C66.4891 244.191 68.4859 245.35 70.4827 245.157C72.5439 244.964 73.7033 245.028 73.9609 245.35C74.283 245.737 74.4118 246.252 74.2186 246.767C74.0253 247.154 73.7033 247.669 73.1236 248.12Z" fill="white"/>
<path d="M100.692 272.465C100.177 273.174 99.4042 273.431 98.2448 273.238C97.1498 273.109 95.8616 272.465 94.4445 271.499C92.1256 269.889 91.0951 268.021 91.2239 265.767C91.2883 265.316 91.8036 263.513 92.8986 260.357C93.5427 258.425 93.3495 257.137 92.2545 256.364C91.868 256.106 91.5459 256.106 91.1595 256.299C90.8374 256.493 90.5153 256.815 90.2577 257.266L89.9356 257.652C88.3897 259.842 87.9389 261.452 88.4541 262.611C88.7118 263.126 88.6474 263.642 88.3253 264.092C87.8744 264.737 87.1015 264.93 86.0709 264.672C85.0403 264.35 83.5588 263.513 81.562 262.16C77.8261 259.584 76.4735 257.588 77.4397 256.235C77.6973 255.849 78.2126 255.655 78.7923 255.72C80.2094 255.784 81.6909 254.754 83.3012 252.435L87.7456 246.188C89.5492 243.612 90.1289 241.744 89.4847 240.584C89.1627 240.005 89.0983 239.554 89.4203 239.103C90.2577 237.944 91.8036 238.137 94.1224 239.683C94.5089 239.94 95.0886 240.391 95.8616 241.035C96.6345 241.679 97.2142 242.066 97.6007 242.388C98.438 242.903 99.1466 243.418 99.7907 243.805C102.174 245.222 103.398 245.995 103.527 246.123C105.717 247.605 107.134 249.344 107.713 251.211C108.358 253.079 108.1 254.882 106.94 256.493C106.103 257.716 105.072 258.489 103.913 258.811C102.754 259.004 101.659 259.133 100.564 259.262C101.272 260.164 101.659 261.323 101.852 262.676C102.045 264.157 101.594 265.96 100.499 268.086C99.9195 269.116 99.9195 270.018 100.435 270.726C100.95 271.435 101.079 272.014 100.692 272.465ZM98.7601 251.984C100.113 250.052 100.113 248.571 98.7601 247.605C98.0516 247.089 97.343 247.218 96.7633 248.056L94.1224 251.469C93.8648 251.855 93.7359 252.113 93.7359 252.371C93.7359 252.628 93.9292 252.822 94.2512 253.079C95.926 254.238 97.4074 253.852 98.7601 251.984Z" fill="white"/>
<path d="M144.492 266.54C144.299 267.248 143.59 267.699 142.431 267.957C141.787 268.086 141.4 268.279 141.207 268.536C140.563 269.567 139.919 270.791 139.339 272.272C138.759 273.753 138.051 275.685 137.278 278.004C135.925 282.061 134.959 284.638 134.251 285.604C133.542 286.634 132.833 287.021 132.125 286.763C131.416 286.57 130.321 285.153 128.776 282.512C127.423 280.129 126.07 277.746 124.782 275.299C123.236 272.658 122.141 271.177 121.368 270.984C121.046 270.855 120.724 271.048 120.402 271.435C120.08 271.821 119.822 272.401 119.565 273.174C119.307 274.011 119.114 274.784 118.985 275.621C118.92 276.458 118.92 277.167 118.985 277.746C119.436 278.262 119.758 278.648 119.951 278.97C120.209 279.421 120.273 279.872 120.144 280.258C119.822 280.967 119.178 281.353 118.341 281.482C117.31 281.675 115.893 281.482 114.218 280.967C112.93 280.58 111.964 280.065 111.191 279.421C110.225 278.648 109.903 277.94 110.16 277.231C110.289 276.909 110.547 276.587 111.062 276.329C111.127 276.329 111.706 276.072 112.672 275.685C113.381 274.397 114.025 273.109 114.605 271.885C115.185 270.597 115.635 269.245 116.086 267.957C116.537 266.604 116.859 265.38 117.052 264.286C117.246 263.126 117.375 261.838 117.375 260.421C117.31 260.292 116.924 259.842 116.28 259.069C115.829 258.489 115.635 258.038 115.764 257.652C116.086 256.75 116.859 256.299 118.276 256.364C119.307 256.364 120.531 256.621 122.012 257.072C122.27 257.137 122.528 257.201 122.785 257.33C123.043 257.394 123.3 257.459 123.494 257.523C124.138 257.716 124.718 258.038 125.168 258.489C125.619 258.876 126.135 259.584 126.714 260.614C127.681 262.353 128.647 264.028 129.613 265.767C130.708 267.699 131.481 268.987 131.867 269.631C132.511 270.662 133.027 271.177 133.413 271.306C134.122 271.563 134.701 270.919 135.152 269.502C135.281 269.052 135.41 268.536 135.474 268.086C135.603 267.57 135.668 267.184 135.668 266.797C135.732 266.411 135.474 265.896 134.83 265.252C134.251 264.608 134.057 264.028 134.251 263.448C134.573 262.547 135.346 262.16 136.698 262.225C137.536 262.289 138.502 262.482 139.661 262.804C139.919 262.869 140.048 262.933 140.112 262.933C140.176 262.933 140.176 262.933 140.241 262.933C140.305 262.933 140.434 262.997 140.563 263.062C140.692 263.126 140.821 263.126 141.078 263.191C142.109 263.513 142.882 263.899 143.461 264.35C144.428 264.994 144.75 265.703 144.492 266.54Z" fill="white"/>
<path d="M176.441 286.312C176.441 287.214 175.861 287.923 174.766 288.245C173.671 288.567 171.932 288.76 169.484 288.695C166.779 288.631 164.717 288.502 163.365 288.245C161.948 287.987 161.239 287.407 161.304 286.441C161.304 285.862 161.819 285.346 162.85 284.895C163.365 284.702 163.558 284.38 163.622 284.058C163.622 283.35 163.236 282.899 162.399 282.641C161.561 282.384 160.402 282.255 158.92 282.255H157.89C156.215 282.255 155.12 282.319 154.669 282.512C154.218 282.706 153.961 283.285 153.961 284.123C153.961 284.38 154.283 284.702 155.056 285.024C155.829 285.346 156.215 285.797 156.215 286.312C156.215 287.729 154.412 288.438 150.869 288.373C148.808 288.309 147.326 288.116 146.489 287.858C145.651 287.536 145.265 287.021 145.265 286.184C145.265 285.733 145.394 285.411 145.523 285.089C145.716 284.831 146.038 284.702 146.553 284.702C147.391 284.702 148.55 283.414 150.032 280.709C151.191 278.648 152.415 275.943 153.703 272.658C154.862 269.696 155.442 267.828 155.442 267.055C155.507 263.964 156.859 262.418 159.629 262.482C161.883 262.547 164.138 264.479 166.392 268.343C167.358 270.018 169.033 273.56 171.416 279.099C173.091 282.963 174.315 284.895 175.152 284.895C175.99 285.024 176.441 285.475 176.441 286.312ZM161.626 277.489C161.626 276.909 161.239 276.008 160.466 274.655C159.693 273.303 159.114 272.658 158.727 272.658C158.341 272.658 157.825 273.303 157.181 274.655C156.537 275.943 156.215 276.845 156.215 277.36C156.215 277.553 156.473 277.746 157.052 277.875C157.632 278.004 158.276 278.133 158.985 278.133C159.822 278.133 160.402 278.133 160.853 278.069C161.432 277.875 161.626 277.682 161.626 277.489Z" fill="white"/>
<path d="M204.138 262.418C204.396 263.191 204.267 263.899 203.945 264.608C203.558 265.316 203.043 265.767 202.335 265.96C201.111 266.282 200.016 265.96 199.05 264.865C198.083 263.77 197.117 263.32 196.151 263.642C195.829 263.706 195.893 264.672 196.28 266.54C196.666 268.408 197.117 270.275 197.697 272.208C198.019 273.431 198.341 274.397 198.663 275.106C198.985 275.814 199.436 276.716 200.145 277.94C200.338 278.262 200.917 278.455 201.884 278.584C202.785 278.648 203.365 279.034 203.558 279.679C203.752 280.451 203.43 281.289 202.463 282.062C201.562 282.834 199.694 283.543 196.988 284.38C194.798 284.96 193.124 285.346 191.964 285.411C190.096 285.475 189.001 284.96 188.679 283.865C188.55 283.414 188.872 282.834 189.581 282.126C190.289 281.417 190.676 280.902 190.676 280.516C190.547 279.292 190.418 278.197 190.225 277.231C190.096 276.265 189.839 275.299 189.581 274.333C189.323 273.431 189.066 272.594 188.937 271.95C188.808 271.306 188.615 270.662 188.486 270.082C188.164 268.858 187.777 267.957 187.455 267.377C187.133 266.797 186.618 266.54 186.103 266.669C185.781 266.797 185.33 267.57 184.686 269.18C184.041 270.791 183.204 271.692 182.238 272.014C181.658 272.208 181.143 272.079 180.628 271.563C180.177 271.113 179.79 270.533 179.597 269.825C179.211 268.665 179.275 267.184 179.661 265.445C180.177 263.513 181.014 262.353 182.238 261.967C182.431 261.903 182.753 261.903 183.204 261.903C183.655 261.903 183.977 261.903 184.235 261.838L196.666 258.232C196.86 258.167 197.117 258.038 197.439 257.781C197.761 257.523 197.955 257.394 198.083 257.33C199.307 256.879 200.531 257.394 201.884 258.876C203.108 259.97 203.816 261.194 204.138 262.418Z" fill="white"/>
<path d="M232.287 265.896C232.737 266.604 232.415 267.506 231.32 268.601C230.612 269.245 229.452 270.147 227.842 271.177L226.812 271.821C225.266 272.852 223.977 273.496 223.076 273.753C221.723 274.14 220.757 273.882 220.113 272.916C219.855 272.53 219.919 272.079 220.177 271.499C220.821 270.211 220.886 269.18 220.306 268.214C219.855 267.506 219.146 266.411 218.18 264.801C217.214 263.255 216.506 262.096 216.055 261.323L215.668 260.743L215.346 260.228C214.573 259.069 213.929 258.232 213.414 257.652C212.898 257.072 211.997 256.686 210.708 256.557C210.064 256.493 209.678 256.364 209.485 256.042C209.034 255.398 209.098 254.625 209.613 253.852C210.258 252.822 211.61 251.662 213.8 250.245L214.96 249.537C216.506 248.571 217.601 247.927 218.309 247.733C219.469 247.411 220.306 247.669 220.886 248.506C221.143 248.957 221.272 249.472 221.079 250.116C220.757 251.469 220.628 252.306 220.821 252.564C221.272 253.272 221.787 254.11 222.367 255.14C223.72 257.523 224.557 259.004 224.944 259.584C225.266 260.099 225.845 260.872 226.618 261.903C227.391 262.933 227.907 263.642 228.164 263.964C228.486 264.35 229.195 264.608 230.225 264.801C231.256 265.059 231.964 265.381 232.287 265.896Z" fill="white"/>
<path d="M252.962 234.337C255.41 236.849 256.505 239.94 256.183 243.612C255.861 247.218 254.25 250.439 251.352 253.208C248.647 255.784 245.555 257.008 241.948 256.943C238.341 256.879 235.249 255.591 232.672 252.886C230.16 250.31 228.936 247.218 229.065 243.612C229.194 240.005 230.611 236.913 233.316 234.337C236.408 231.375 239.887 229.958 243.751 230.086C247.294 230.28 250.321 231.697 252.962 234.337ZM248.518 243.161C246.907 241.551 244.975 240.198 242.527 239.103C239.5 237.751 237.31 237.751 235.957 239.039C235.378 239.618 235.056 240.391 235.184 241.357C235.249 242.323 235.764 243.161 236.601 244.062C238.019 245.544 240.015 246.767 242.527 247.862C245.555 249.215 247.745 249.279 248.969 248.12C249.677 247.476 249.999 246.703 249.935 245.801C249.87 244.9 249.42 243.998 248.518 243.161Z" fill="white"/>
<path d="M262.56 196.209C263.205 196.596 263.527 197.368 263.527 198.528C263.527 199.172 263.655 199.558 263.913 199.816C264.815 200.653 265.91 201.49 267.327 202.328C268.68 203.165 270.419 204.26 272.609 205.419C276.409 207.48 278.728 208.961 279.63 209.799C280.531 210.636 280.725 211.409 280.338 212.117C279.952 212.761 278.341 213.599 275.507 214.565C272.866 215.402 270.225 216.239 267.585 217.077C264.686 218.043 263.011 218.88 262.689 219.524C262.56 219.782 262.625 220.168 263.011 220.554C263.333 220.941 263.849 221.263 264.557 221.649C265.33 222.036 266.103 222.422 266.876 222.68C267.713 222.937 268.422 223.066 269.002 223.066C269.581 222.744 270.032 222.487 270.419 222.358C270.934 222.165 271.385 222.165 271.771 222.422C272.351 222.873 272.673 223.581 272.673 224.419C272.673 225.449 272.222 226.802 271.32 228.347C270.676 229.507 269.968 230.344 269.259 230.988C268.358 231.761 267.52 231.954 266.812 231.568C266.49 231.375 266.296 231.052 266.103 230.473C266.103 230.344 265.974 229.829 265.717 228.798C264.622 227.832 263.462 226.931 262.303 226.158C261.143 225.385 259.92 224.612 258.696 223.968C257.472 223.259 256.312 222.744 255.282 222.293C254.187 221.907 252.963 221.52 251.546 221.263C251.417 221.327 250.902 221.585 250 222.1C249.356 222.487 248.841 222.551 248.519 222.358C247.681 221.907 247.424 221.005 247.681 219.653C247.874 218.687 248.325 217.527 249.098 216.175C249.227 215.917 249.356 215.724 249.485 215.466C249.614 215.273 249.742 215.016 249.807 214.822C250.129 214.243 250.58 213.727 251.031 213.341C251.546 212.955 252.319 212.568 253.414 212.246C255.282 211.666 257.15 211.022 259.018 210.443C261.143 209.734 262.56 209.219 263.269 208.961C264.364 208.511 265.008 208.124 265.201 207.802C265.523 207.158 265.072 206.514 263.72 205.741C263.269 205.484 262.818 205.29 262.367 205.162C261.916 204.968 261.465 204.775 261.143 204.711C260.757 204.582 260.177 204.775 259.469 205.226C258.76 205.677 258.116 205.741 257.536 205.484C256.699 205.033 256.441 204.195 256.763 202.907C256.957 202.07 257.343 201.168 257.923 200.138C258.052 199.88 258.116 199.751 258.116 199.751C258.116 199.687 258.18 199.687 258.18 199.687C258.245 199.623 258.309 199.494 258.374 199.365C258.438 199.236 258.502 199.107 258.631 198.914C259.147 197.948 259.662 197.304 260.177 196.789C261.015 195.952 261.787 195.758 262.56 196.209Z" fill="white"/>
<path d="M287.616 167.227C288.518 167.355 289.162 168 289.355 169.094C289.548 170.189 289.548 171.993 289.162 174.376C288.775 177.016 288.389 179.013 287.938 180.365C287.552 181.718 286.843 182.362 285.877 182.233C285.297 182.169 284.782 181.589 284.524 180.494C284.395 179.979 284.138 179.721 283.751 179.657C283.043 179.528 282.527 179.915 282.205 180.687C281.883 181.46 281.626 182.555 281.368 184.036L281.239 185.067C280.982 186.742 280.982 187.836 281.11 188.287C281.304 188.738 281.754 189.06 282.656 189.189C282.914 189.189 283.3 188.931 283.687 188.223C284.073 187.514 284.589 187.192 285.104 187.257C286.521 187.45 287.036 189.318 286.521 192.796C286.199 194.857 285.877 196.274 285.426 197.046C285.039 197.819 284.46 198.141 283.687 198.012C283.236 197.948 282.914 197.819 282.656 197.626C282.399 197.368 282.334 197.046 282.399 196.531C282.527 195.694 281.304 194.406 278.792 192.602C276.859 191.185 274.347 189.704 271.191 188.03C268.357 186.548 266.553 185.711 265.845 185.647C262.753 185.196 261.4 183.65 261.787 181.009C262.109 178.755 264.299 176.823 268.421 175.084C270.225 174.311 274.025 173.088 279.822 171.477C283.88 170.318 286.006 169.352 286.135 168.515C286.263 167.484 286.779 167.098 287.616 167.227ZM276.988 180.687C276.408 180.623 275.442 180.881 274.025 181.46C272.608 182.04 271.835 182.555 271.771 182.942C271.706 183.328 272.286 183.908 273.51 184.745C274.734 185.518 275.635 185.969 276.086 186.033C276.279 186.033 276.473 185.775 276.666 185.26C276.859 184.681 276.988 184.036 277.117 183.392C277.246 182.62 277.31 181.976 277.31 181.525C277.31 180.945 277.181 180.752 276.988 180.687Z" fill="white"/>
<path d="M280.596 136.183C281.884 136.119 283.172 136.248 284.525 136.699C286.071 137.214 286.908 137.858 287.037 138.695C287.166 139.21 287.166 139.597 287.166 139.79C287.166 139.983 287.101 140.498 286.908 141.271L289.549 154.603C289.807 155.827 289.742 156.664 289.356 157.244C289.098 157.63 288.776 157.888 288.196 157.952C287.746 158.017 286.973 157.695 286.006 156.922C284.976 156.149 283.816 155.891 282.335 156.149L276.924 157.115C275.121 157.437 273.704 157.759 272.544 158.081C271.449 158.339 270.354 158.725 269.452 159.112C269.452 159.756 269.388 160.335 269.13 160.851C268.873 161.301 268.486 161.623 267.971 161.752C266.876 161.945 265.91 161.301 265.137 159.756C264.557 158.661 264.106 157.179 263.784 155.247C263.398 153.315 263.205 151.769 263.269 150.61C263.333 148.807 263.849 147.841 264.815 147.647C265.523 147.519 266.167 147.841 266.876 148.549C267.069 148.807 267.391 149.193 267.713 149.708C267.907 149.773 268.744 149.708 270.225 149.451C271.707 149.193 273.253 148.936 274.928 148.614C276.409 148.356 277.826 148.034 279.05 147.841C280.274 147.583 281.369 147.325 282.271 147.132C282.915 147.003 283.301 146.681 283.366 146.102C283.43 145.78 283.366 145.136 283.237 144.298C282.85 142.366 281.82 141.142 280.145 140.563C278.47 140.048 277.633 139.532 277.504 139.146C277.375 138.373 277.633 137.729 278.277 137.149C278.986 136.57 279.758 136.248 280.596 136.183Z" fill="white"/>
<path d="M63.076 215.531C62.3675 215.853 61.5945 215.853 60.886 215.595C60.1131 215.338 59.6622 214.822 59.3401 214.114C58.8248 212.955 59.0825 211.795 60.1131 210.765C61.1437 209.67 61.4013 208.704 61.0792 207.802C60.9504 207.544 59.9842 207.673 58.1807 208.253C56.3772 208.833 54.5092 209.477 52.6412 210.185C51.4818 210.636 50.5156 211.087 49.8715 211.409C49.2274 211.795 48.3256 212.375 47.1662 213.148C46.8441 213.341 46.7153 213.985 46.7153 214.887C46.7153 215.853 46.4577 216.432 45.8136 216.69C45.0406 217.012 44.2032 216.754 43.3659 215.917C42.5285 215.08 41.5623 213.341 40.4673 210.765C39.63 208.704 39.1147 207.029 38.9215 205.934C38.6638 204.131 39.0503 202.972 40.1453 202.521C40.5962 202.328 41.2403 202.585 42.0132 203.229C42.7862 203.873 43.3659 204.195 43.7524 204.131C44.9762 203.873 46.0712 203.68 46.973 203.358C47.9392 203.101 48.8409 202.778 49.8715 202.392C50.7733 202.006 51.5462 201.748 52.1904 201.49C52.8345 201.233 53.4142 201.04 53.9939 200.846C55.1533 200.395 55.9907 199.945 56.5704 199.558C57.1501 199.107 57.2789 198.657 57.0857 198.141C56.9569 197.819 56.0551 197.433 54.4448 196.982C52.7701 196.531 51.7395 195.823 51.4174 194.857C51.2242 194.277 51.2886 193.762 51.6751 193.246C52.0615 192.731 52.6412 192.345 53.2854 192.023C54.4448 191.572 55.9263 191.443 57.6654 191.701C59.6622 191.958 60.9504 192.667 61.4013 193.891C61.4657 194.084 61.5301 194.406 61.5301 194.857C61.5301 195.307 61.5945 195.629 61.7234 195.823L66.6831 207.738C66.7475 207.931 66.9408 208.189 67.1984 208.446C67.5205 208.704 67.7137 208.897 67.7137 209.026C68.2934 210.185 67.9069 211.473 66.5543 212.955C65.3949 214.243 64.2999 215.08 63.076 215.531Z" fill="white"/>
<path d="M131.803 239.361C127.358 229.185 127.036 223.968 127.423 212.568C127.874 198.914 127.874 179.013 127.423 165.295C127.358 163.684 129.162 162.01 148.228 147.647L161.754 137.214L162.141 137.149C163.493 136.892 163.493 136.892 180.241 173.796L201.819 221.198C203.815 225.578 204.009 234.659 201.11 240.52C210.965 235.754 219.79 229.249 227.262 221.456C225.844 221.585 224.943 221.134 224.363 220.683C221.658 219.266 218.759 213.534 218.63 213.277L210.643 195.952C200.208 173.41 188.485 147.905 179.468 126.458L179.081 125.556L179.661 124.848C180.949 123.367 187.262 118.279 197.568 110.099C205.168 104.045 213.091 97.7977 216.376 94.7706L216.569 94.5774L216.762 94.4486C218.952 93.4181 221.271 93.2249 223.654 93.8046C215.732 86.3979 206.456 80.3438 196.279 76.0931C196.344 76.6727 196.473 77.2524 196.601 77.8964L196.795 79.1201L196.923 79.571C197.245 80.8591 197.632 82.6624 197.117 84.337L195.7 87.1708C195.7 87.1708 192.737 89.8114 192.672 89.8114L161.948 114.028L129.355 139.919L128.453 139.532C127.423 139.082 127.423 139.082 127.294 114.285C127.294 114.285 127.423 81.8896 127.487 81.6964C127.938 78.6693 129.419 76.0931 131.545 73.9677C121.239 77.51 111.77 82.8557 103.461 89.5538C103.526 89.5538 103.655 89.5538 103.719 89.6182C105.2 90.1335 107.133 91.6148 107.584 95.6723C108.872 106.235 109.323 114.157 109.13 123.882C109.13 124.655 109.709 203.294 109.065 216.819C109.065 220.876 107.97 223.775 105.909 225.578C104.234 226.995 102.302 227.317 100.949 227.124C112.028 236.785 125.49 243.869 140.305 247.283C136.312 244.513 132.576 241.164 131.803 239.361Z" fill="white"/>
<path d="M247.23 201.233C259.984 175.664 258.76 140.112 245.233 115.445C231.063 88.0725 202.399 68.5577 172.834 65.6594C153.639 63.7917 136.119 67.1407 119.694 74.483C96.8276 84.2726 79.1786 105.076 71.5136 127.746C64.3638 149.064 63.7197 175.986 72.7374 196.016C80.7245 215.402 95.3461 231.568 113.317 241.937C113.381 242.001 113.51 242.066 113.639 242.13C115.378 243.161 117.182 244.062 118.985 244.964C119.694 245.35 120.402 245.608 121.111 245.93C122.206 246.445 123.237 246.896 124.332 247.347C125.62 247.862 126.844 248.378 128.132 248.828C128.196 248.893 128.261 248.893 128.325 248.893C135.668 251.533 143.398 253.337 151.385 254.11C152.48 254.238 153.575 254.303 154.67 254.367C156.473 254.432 158.341 254.56 160.145 254.56C196.924 255.076 231.513 232.856 247.23 201.233ZM234.09 105.655C238.212 110.743 242.399 117.957 245.684 125.492C250 135.99 252.383 147.39 252.383 159.434C252.383 180.365 245.169 199.623 232.995 215.016C230.869 216.754 228.551 218.236 227.005 218.429C226.683 218.493 226.425 218.429 226.296 218.3L226.103 218.107L225.91 217.978C224.815 217.463 222.753 214.371 221.53 211.924L213.607 194.599C203.365 172.444 191.836 147.325 182.882 126.136C185.266 123.946 192.866 117.892 199.694 112.482C207.166 106.557 214.895 100.438 218.438 97.2825C224.364 94.5774 230.805 101.34 234.09 105.655ZM142.045 71.1339C148.229 69.8458 154.605 69.1373 161.175 69.1373C171.61 69.1373 181.594 70.8763 190.934 74.0965C191.578 74.4186 192.222 74.7406 192.866 75.127C193.124 75.7711 193.446 77.5744 193.575 78.4117L193.832 79.8286L193.961 80.3438C194.09 80.9879 194.348 82.0184 194.348 82.7268C194.348 82.9201 194.348 83.1133 194.283 83.2421C194.283 83.2421 193.51 84.7234 193.253 85.2387C192.866 85.5607 190.741 87.4284 190.741 87.4284C190.805 87.364 160.145 111.58 160.145 111.58C160.145 111.58 134.96 131.482 130.644 134.831C130.58 128.455 130.451 112.997 130.451 99.9875C130.451 92.3233 130.515 85.4963 130.644 81.954C131.417 76.9304 136.248 73.2592 142.045 71.1339ZM94.5087 220.876C79.3074 204.711 70.0321 183.135 70.0321 159.369C70.0321 133.221 81.3042 109.648 99.2752 93.1605C100.563 92.5809 101.787 92.3233 102.689 92.5809C103.655 92.9029 104.235 94.0622 104.493 96.0588C105.716 106.492 106.167 114.285 106.039 123.882C106.039 124.719 106.618 203.229 105.974 216.69C105.974 219.782 105.266 222.036 103.913 223.131C102.947 223.968 101.787 224.032 101.336 223.968C99.1464 223.71 96.8276 222.615 94.5087 220.876ZM100.95 227.124C102.303 227.253 104.235 226.995 105.91 225.578C108.035 223.775 109.066 220.876 109.066 216.819C109.71 203.294 109.13 124.719 109.13 123.882C109.259 114.157 108.808 106.235 107.584 95.6723C107.134 91.6148 105.201 90.1335 103.72 89.6182C103.655 89.6182 103.526 89.6182 103.462 89.5538C111.707 82.8557 121.24 77.51 131.546 73.9677C129.42 76.0931 127.939 78.6693 127.488 81.6964C127.488 81.8896 127.295 114.221 127.295 114.221C127.423 138.953 127.423 138.953 128.454 139.468L129.291 139.854L162.013 114.028L192.737 89.747C192.802 89.6826 195.765 87.1064 195.765 87.1064L197.182 84.337C197.761 82.6624 197.311 80.8591 196.989 79.571L196.86 79.1201L196.666 77.8964C196.538 77.2524 196.473 76.6727 196.344 76.0931C206.522 80.3438 215.797 86.398 223.72 93.8046C221.336 93.2249 219.018 93.4181 216.763 94.4486L216.57 94.5774L216.377 94.7063C213.027 97.7333 205.169 103.981 197.568 110.035C187.262 118.214 180.95 123.238 179.662 124.784L179.082 125.492L179.468 126.394C188.486 147.841 200.209 173.41 210.644 195.952L218.631 213.277C218.76 213.534 221.658 219.266 224.364 220.683C224.943 221.198 225.845 221.649 227.327 221.456C219.855 229.249 211.03 235.754 201.175 240.52C204.074 234.659 203.881 225.578 201.884 221.198L180.306 173.796C163.559 136.827 163.559 136.827 162.206 137.149L161.819 137.214L148.293 147.647C129.227 162.01 127.423 163.684 127.488 165.295C127.874 179.013 127.874 198.914 127.423 212.568C127.037 223.968 127.359 229.185 131.803 239.361C132.641 241.164 136.312 244.578 140.306 247.347C125.491 243.869 112.029 236.785 100.95 227.124ZM149.452 248.571C144.75 247.54 135.604 240.069 134.702 238.073C131.352 230.473 130.451 226.093 130.451 218.107C130.451 216.432 130.451 214.629 130.58 212.568C130.837 205.484 130.902 196.66 130.902 187.901C130.902 179.915 130.837 172.057 130.58 165.488C131.997 163.684 142.818 155.505 150.161 149.966C150.161 149.966 159.436 142.817 161.884 140.949C164.074 145.587 170.58 159.885 177.407 174.955L198.985 222.422C199.758 224.161 200.209 226.737 200.209 229.507C200.209 234.788 198.663 240.713 195.443 242.323C190.805 244.642 179.533 248.056 168.454 249.344C166.006 249.537 163.623 249.666 161.111 249.666C158.084 249.666 155.056 249.472 152.093 249.215C151.191 249.086 150.29 248.893 149.452 248.571Z" fill="#E8A958"/>
</svg>
