<svg width="250" height="250" viewBox="0 0 250 250" fill="none" xmlns="http://www.w3.org/2000/svg">
<path d="M131.087 2.3237C135.688 2.82374 139.889 1.27361 144.84 1.97367C151.741 1.97367 157.292 5.824 163.193 8.52422C165.094 9.37429 167.444 8.07418 169.445 8.92425C177.846 10.3244 184.448 16.0248 191.049 21.7253C201.251 23.4755 205.902 29.976 211.153 37.8267C221.705 43.0771 228.506 55.0281 231.206 62.9788C238.358 70.3294 241.908 79.1801 242.158 89.131C242.759 93.1813 245.909 96.1816 247.109 99.9819C249.61 106.032 249.11 113.633 247.91 120.184C250.71 128.734 251.16 139.285 246.359 147.036C245.409 151.786 246.559 158.087 244.809 162.937C243.959 169.938 237.508 174.588 236.007 181.389C234.257 187.189 232.457 193.29 227.156 197.34C222.905 200.54 220.954 204.941 218.954 209.191C218.154 210.141 217.054 210.741 216.604 211.941C212.053 214.691 208.602 219.892 203.001 220.242C203.251 224.992 193.999 232.193 185.198 235.593C181.947 236.893 178.396 237.493 174.996 238.693C166.994 244.394 157.392 246.394 146.94 246.144C140.689 248.144 134.238 249.694 127.187 249.944C121.586 250.544 117.585 246.044 111.884 247.894C101.582 249.094 93.6803 244.594 85.3788 240.894C76.4771 240.444 68.5756 237.043 62.8245 229.743C57.6735 227.143 51.4723 226.993 47.4216 221.992C43.7709 218.642 41.8205 214.141 38.97 210.441C30.3683 205.891 22.7669 197.34 19.7163 188.289C16.5157 184.389 12.4649 180.539 11.2647 175.688C8.0641 170.488 9.96446 163.237 6.56382 158.137C1.96295 151.036 -0.0374357 141.285 2.46304 132.835C2.66308 128.084 0.362642 123.834 0.112594 119.133C-0.587538 112.483 2.11297 106.382 4.46342 100.482C2.71309 90.5311 6.66383 81.4303 12.665 73.9297C14.1653 65.529 18.316 58.0284 25.0173 51.9279C29.8182 46.4774 31.3685 39.2268 37.9198 35.0764C40.3702 32.4262 44.0209 31.7762 46.8214 29.626C50.3721 28.3259 52.3725 24.7256 55.173 22.2254C57.4235 20.0752 59.9739 17.575 62.6744 16.0249C69.4757 14.3247 76.027 11.8745 81.9281 7.97417C88.1793 5.22394 95.1806 4.17386 102.482 4.12385C110.333 -1.02658 122.486 -1.02658 131.087 2.3237Z" fill="#2B2549"/>
<path d="M14.5151 125.035C14.5151 185.39 64.0745 234.544 125.036 234.544C185.998 234.544 235.557 185.44 235.557 125.035C235.557 64.6795 185.998 15.5254 125.036 15.5254C64.0745 15.5254 14.5151 64.6295 14.5151 125.035ZM18.3159 125.035C18.3159 66.7297 66.1749 19.2757 125.036 19.2757C183.897 19.2757 231.806 66.7297 231.806 125.035C231.806 183.339 183.897 230.793 125.036 230.793C66.1749 230.793 18.3159 183.339 18.3159 125.035Z" fill="#E8A958"/>
<path d="M126.637 4.3228C126.887 5.97294 124.986 5.87293 124.086 6.67299C114.084 11.3234 103.782 15.7238 92.4803 17.3739C91.9803 17.1239 91.0801 17.3739 91.0801 16.5738C92.7304 13.6236 95.881 12.1735 98.2314 9.77326C105.733 3.72275 115.935 1.22254 125.687 3.57274C126.137 3.62274 126.387 4.07278 126.637 4.3228Z" fill="#E8A958"/>
<path d="M155.041 7.27331C155.541 7.87336 156.541 8.3734 156.191 9.32348C147.84 12.1737 139.088 12.6738 129.986 13.6238C126.236 13.7739 121.785 14.0739 118.234 12.8738C117.534 12.6738 117.534 11.9237 118.084 11.4737C124.735 8.02337 131.487 5.07313 139.088 4.12305C144.589 4.17305 150.19 5.27314 155.041 7.27331Z" fill="#E8A958"/>
<path d="M96.8303 7.17389L96.2302 8.57401C87.1785 17.0247 77.6767 24.5253 66.7746 28.5757C66.5245 28.5757 66.4245 28.3257 66.1745 28.4257C65.9744 26.6755 67.3747 25.0754 68.6249 23.7753C74.6261 14.2745 84.0279 7.97396 94.4798 6.42383C95.28 6.67385 96.3302 6.22381 96.8303 7.17389Z" fill="#E8A958"/>
<path d="M184.096 19.4243C184.196 19.9244 183.996 20.4744 183.496 20.6244C170.294 20.2244 164.693 19.6244 154.441 16.9241C152.791 16.1241 147.94 15.974 146.489 14.7239C146.239 13.6739 147.44 13.4238 148.04 13.1738C158.392 10.7736 171.494 9.62352 180.196 16.4741C181.596 17.2742 183.146 17.9742 184.096 19.4243Z" fill="#E8A958"/>
<path d="M70.5261 17.8751C61.8745 27.0259 56.3234 39.4769 44.6712 45.3274H44.0711C43.621 42.2271 45.8214 39.7269 46.8716 36.9767C51.1225 28.076 59.7741 19.4752 69.3759 16.625L70.5761 16.775V17.8751H70.5261Z" fill="#E8A958"/>
<path d="M188.048 23.1251C195.6 24.5753 202.751 29.1757 207.302 35.9762C207.502 36.6763 207.152 37.5264 206.352 37.3763C193.999 34.2761 182.197 28.7256 171.395 22.7751C170.895 22.1751 171.545 21.475 172.195 21.375C177.496 21.525 182.797 22.3751 188.048 23.1251Z" fill="#E8A958"/>
<path d="M46.4209 33.0755C45.8208 35.4757 44.5205 37.6259 43.2703 39.726C38.1193 48.3768 36.8191 58.7776 28.6175 65.8782C27.8174 66.2283 28.1174 65.2782 27.8174 64.9282C27.9674 52.0771 33.5685 39.826 45.0707 32.6254C45.6208 32.6254 46.3209 32.3754 46.4209 33.0755Z" fill="#E8A958"/>
<path d="M212.953 41.9266C219.054 45.7269 225.656 51.5774 226.906 58.678C226.456 59.3781 225.756 58.678 225.155 58.678C214.953 52.3775 203.701 46.927 195.7 37.1262C195.45 36.9262 195.6 36.5262 195.55 36.1761C197.2 35.6761 199.05 36.5262 200.601 36.9762C204.652 38.7263 209.102 39.4764 212.953 41.9266Z" fill="#E8A958"/>
<path d="M26.9674 55.1781C25.8172 64.6789 24.5169 74.1797 20.7662 82.6304C20.0661 85.5806 19.3659 88.4309 17.2155 90.7311C16.3654 90.8811 16.3654 89.881 16.0653 89.3309C14.165 76.2299 16.3154 63.2788 25.6671 54.178C26.4673 53.928 26.7173 54.578 26.9674 55.1781Z" fill="#E8A958"/>
<path d="M223.105 60.4289C231.907 65.6793 237.658 74.6801 238.608 84.3309C238.458 84.8309 237.808 85.181 237.408 84.7809C228.856 75.8802 219.304 67.1795 214.053 56.8286C214.053 56.4786 213.953 56.1285 214.303 55.9785C217.604 56.4786 220.104 58.8788 223.105 60.4289Z" fill="#E8A958"/>
<path d="M232.907 83.1308C240.208 90.5314 246.059 98.2321 245.959 108.783C245.709 110.333 246.559 111.983 245.159 112.933L244.559 112.783C237.758 102.432 231.507 91.7815 227.756 80.1806L227.906 78.9805C230.306 79.0805 231.257 81.6807 232.907 83.1308Z" fill="#E8A958"/>
<path d="M12.2145 80.7309C13.2647 91.3318 14.815 102.733 12.6646 113.184C12.5145 113.784 12.2145 114.734 11.5144 114.884C5.86328 104.783 5.06313 90.1817 11.2643 80.0809C11.6644 79.8809 12.0144 80.3809 12.2145 80.7309Z" fill="#E8A958"/>
<path d="M239.757 109.033C245.958 118.434 249.959 131.035 245.708 142.436C245.458 142.936 244.808 143.036 244.458 142.786C240.107 131.135 236.806 119.034 236.006 105.933C236.156 105.583 236.156 104.983 236.606 104.883C238.257 105.733 238.657 107.633 239.757 109.033Z" fill="#E8A958"/>
<path d="M5.86279 108.982C8.31326 120.033 13.0141 130.034 12.314 142.385C10.4137 142.635 10.4137 139.984 9.01339 138.984C6.56292 135.434 5.81278 131.384 3.96243 127.583C2.2121 122.833 2.66218 117.233 3.01225 112.232C3.71238 111.032 3.96243 103.881 5.86279 108.982Z" fill="#E8A958"/>
<path d="M239.757 135.434C243.658 145.535 246.009 158.836 240.007 168.687C239.407 169.387 238.857 170.237 237.807 170.237L237.357 169.837C235.857 161.186 235.557 151.685 236.407 142.484C236.757 139.484 236.257 135.934 238.157 133.684C239.107 133.734 239.207 134.834 239.757 135.434Z" fill="#E8A958"/>
<path d="M4.56305 135.085C10.5142 146.036 17.5655 156.487 20.4161 168.638C20.6161 169.138 20.266 169.588 19.6159 169.388C13.9148 164.588 8.5138 158.787 6.9135 151.837C4.21299 147.186 3.7629 141.586 3.71289 135.885C3.81291 135.485 4.16298 134.985 4.56305 135.085Z" fill="#E8A958"/>
<path d="M234.407 162.487C235.107 166.437 234.957 171.088 235.207 175.188C234.357 178.988 233.807 182.939 232.056 186.389C229.856 189.839 228.056 194.09 224.205 196.34C223.855 196.34 223.605 196.34 223.405 195.99C224.205 186.939 225.955 178.188 228.556 169.938C229.706 166.487 231.156 163.287 233.107 160.187C234.257 160.137 234.157 161.637 234.407 162.487Z" fill="#E8A958"/>
<path d="M13.1147 167.087C22.5165 174.338 30.368 183.489 35.869 193.339C35.969 193.789 35.869 194.289 35.4189 194.289C24.967 190.139 15.0151 180.288 12.1645 169.437C12.0645 168.637 11.6644 166.437 13.1147 167.087Z" fill="#E8A958"/>
<path d="M222.654 185.29C221.804 197.291 218.404 209.292 207.001 215.792C206.301 216.042 205.351 215.942 205.101 215.192C208.852 204.391 213.553 194.041 221.304 184.89C221.704 184.34 222.654 184.49 222.654 185.29Z" fill="#E8A958"/>
<path d="M46.8217 205.19C49.2721 207.94 52.6728 209.691 54.3731 212.791C53.5229 213.841 52.3727 212.941 51.3225 212.941C47.8219 211.391 43.8211 210.941 40.5205 208.79C34.6194 205.44 28.5682 200.34 26.2178 193.839C26.3178 193.339 26.3178 192.539 27.0179 192.539C34.1193 195.689 40.3204 200.84 46.8217 205.19Z" fill="#E8A958"/>
<path d="M205.851 205.941C204.701 211.141 202.551 215.792 200.1 220.442C195.499 227.243 188.448 230.993 181.547 233.743C180.996 233.643 180.346 233.993 179.946 233.493C180.546 230.793 182.897 228.843 184.647 226.693C189.698 218.492 196.95 211.241 204.851 205.541C205.301 205.541 205.551 205.691 205.851 205.941Z" fill="#E8A958"/>
<path d="M64.7246 219.692C69.1754 221.743 73.3262 224.543 77.627 226.943C77.627 227.293 78.2271 227.543 77.8271 227.893C71.2758 228.743 64.9246 227.293 59.1735 225.543C53.8725 222.693 47.4213 219.942 44.5208 213.892C44.4207 213.542 44.6708 213.192 45.0209 213.092C51.9222 214.492 58.0733 217.592 64.7246 219.692Z" fill="#E8A958"/>
<path d="M103.732 235.193C104.432 235.643 104.582 236.593 103.632 236.843C94.6801 238.993 83.578 239.793 75.3765 235.643C72.926 234.493 70.0755 233.192 68.5752 230.592C69.5254 229.742 71.1257 230.442 72.2259 229.992C83.328 230.292 94.08 231.492 103.732 235.193Z" fill="#E8A958"/>
<path d="M158.743 232.993C156.142 237.043 151.441 238.944 147.791 241.994C140.639 245.894 131.487 247.794 123.036 245.694C122.436 245.594 122.186 244.644 122.686 244.294C133.488 238.794 144.74 234.393 156.942 232.293C157.592 232.293 158.292 232.293 158.743 232.993Z" fill="#E8A958"/>
<path d="M130.586 237.543C131.287 237.893 131.387 238.593 130.736 239.093C121.585 243.593 110.433 248.094 99.7306 244.193C97.8303 243.593 95.9799 242.993 94.3296 241.693C94.1796 240.993 94.7797 240.393 95.2798 240.293C106.782 238.243 118.534 235.893 130.586 237.543Z" fill="#E8A958"/>
<path d="M184.648 222.091L184.398 223.641C177.346 233.742 167.144 242.543 154.692 243.393C154.192 243.243 153.392 243.243 153.142 242.443C155.692 238.792 159.693 236.742 163.093 234.042C169.345 228.792 176.496 224.891 183.747 221.791C184.047 221.841 184.498 221.741 184.648 222.091Z" fill="#E8A958"/>
<path d="M76.177 58.6787C76.6771 59.2287 76.8271 59.7287 76.6271 60.2288C76.427 60.6788 75.8769 61.3289 74.9768 62.1289C74.2266 62.829 73.4765 63.4291 72.8263 64.0291C72.1762 64.5791 71.5261 65.1292 70.976 65.6292L63.5246 64.3791C63.1745 64.3291 62.9745 64.2791 62.8745 64.2791C62.6744 64.2791 62.4744 64.3791 62.2743 64.5291C61.8743 64.8792 61.9243 65.3292 62.4244 65.8793C62.8745 66.3293 63.4246 66.7293 64.1747 66.9793C64.3247 67.0294 64.6748 67.0294 65.2249 66.9293C65.625 66.8793 65.975 67.0294 66.2751 67.3294C66.5752 67.6794 66.6752 68.1294 66.5752 68.7295C66.4751 69.2795 66.2251 69.7296 65.825 70.0796L61.6742 73.7799C61.1241 74.28 60.574 74.58 60.0239 74.73C59.3238 74.93 58.7237 74.78 58.3236 74.33C58.1236 74.0799 58.0735 73.7799 58.0735 73.4299C58.0735 73.2299 58.1736 72.8798 58.2736 72.4298C57.8235 71.5797 57.2234 70.6297 56.4732 69.6296C55.6731 68.5795 54.8729 67.5794 53.9728 66.6293C52.9726 65.5292 52.1224 64.6292 51.3223 63.9291C50.5721 63.229 49.972 62.779 49.5219 62.579C48.6718 62.929 47.9716 62.879 47.4215 62.329C47.0215 61.8789 46.9214 61.2789 47.1715 60.5288C47.4215 59.7787 47.9216 59.0787 48.6218 58.4286L51.5723 55.7784C52.0724 55.3284 52.6225 55.0283 53.2726 54.9283C53.8727 54.7783 54.4229 54.8783 54.8229 55.3284C55.023 55.5284 55.173 55.8284 55.223 56.1284C55.273 56.4285 55.223 56.8285 55.073 57.2285C55.223 57.6286 55.4731 58.1286 55.7231 58.5786C55.9732 59.0287 56.2732 59.3787 56.5233 59.6787C56.8233 60.0288 57.0734 60.1288 57.1734 59.9788C57.5735 59.5287 57.7735 58.7787 57.7735 57.7286C57.7735 56.6785 57.5735 55.8284 57.2234 55.1284L55.9732 54.5283C55.423 54.0283 55.323 53.3782 55.6231 52.6281C55.8731 52.0281 56.3732 51.428 57.0734 50.778L60.274 47.8777C60.674 47.5277 61.1741 47.3277 61.7242 47.2777C62.3244 47.2277 62.7744 47.3277 63.0745 47.6777C63.5746 48.2278 63.5746 48.9278 62.9745 49.6279C62.4244 50.2779 61.8743 50.928 61.3242 51.5781C61.0741 52.4781 60.9241 53.4282 60.9241 54.3783C60.9241 55.4284 61.0741 56.1784 61.4742 56.5285C61.6242 56.6785 62.4244 56.8785 63.9247 57.0785C64.9749 57.2785 66.6252 57.4786 68.8756 57.6786C70.7259 57.8786 72.3763 58.0786 73.8265 58.1786C74.3766 57.9286 74.7767 57.8286 75.0768 57.8786C75.5769 58.1286 75.8769 58.2786 76.177 58.6787Z" fill="white"/>
<path d="M88.2788 51.177C88.6289 51.7271 88.3288 52.4271 87.4287 53.2772C86.8286 53.8273 85.9284 54.4773 84.5781 55.2774L83.728 55.7774C82.4277 56.5275 81.4275 57.0275 80.6774 57.1775C79.5772 57.4276 78.827 57.2275 78.3769 56.4275C78.1769 56.1275 78.2269 55.7774 78.477 55.3274C79.0271 54.3273 79.1271 53.4772 78.677 52.7272C78.3269 52.1771 77.7768 51.227 77.0767 49.9269C76.3766 48.6268 75.8265 47.7267 75.4764 47.0767L75.1763 46.6267L74.9263 46.2266C74.3262 45.2765 73.8761 44.5765 73.476 44.1264C73.0759 43.6264 72.3758 43.3264 71.3756 43.1764C70.8755 43.1264 70.5755 42.9763 70.4254 42.7263C70.0754 42.1763 70.1754 41.5762 70.5755 40.9762C71.1256 40.1761 72.2758 39.276 74.0261 38.2259L74.9763 37.6759C76.2265 36.9258 77.1267 36.4758 77.6768 36.3258C78.627 36.0758 79.2771 36.2758 79.7272 36.9758C79.9773 37.3259 80.0273 37.7759 79.8772 38.2259C79.5772 39.276 79.4772 39.9261 79.6272 40.1761C79.9772 40.7262 80.3773 41.4762 80.8274 42.3263C81.8276 44.2765 82.4777 45.4266 82.7778 45.9266C83.0278 46.3766 83.4279 46.9767 84.028 47.8267C84.6281 48.6268 85.0282 49.2269 85.2282 49.5269C85.4783 49.8269 86.0284 50.0769 86.8286 50.277C87.4787 50.477 88.0288 50.777 88.2788 51.177Z" fill="white"/>
<path d="M141.939 44.077C141.889 44.8271 141.439 45.3271 140.539 45.5772C139.639 45.8272 138.238 45.9272 136.288 45.8272C134.138 45.7272 132.487 45.5272 131.387 45.2771C130.287 45.0271 129.737 44.5771 129.787 43.777C129.787 43.327 130.237 42.9269 131.037 42.5769C131.437 42.4269 131.637 42.1769 131.637 41.9269C131.687 41.3768 131.337 40.9768 130.687 40.7768C130.037 40.5767 129.137 40.4267 127.936 40.3767L127.136 40.3267C125.786 40.2767 124.886 40.3267 124.536 40.4767C124.186 40.6267 123.936 41.0768 123.936 41.7268C123.936 41.9769 124.236 42.2269 124.786 42.4769C125.386 42.7269 125.686 43.077 125.686 43.527C125.636 44.6771 124.186 45.1771 121.335 45.0271C119.685 44.9271 118.535 44.7771 117.885 44.4771C117.234 44.227 116.934 43.777 116.984 43.177C117.034 42.8269 117.084 42.5269 117.234 42.3269C117.434 42.1269 117.684 42.0269 118.085 42.0269C118.735 42.0769 119.735 41.0268 120.985 38.9266C121.985 37.3265 123.036 35.2263 124.136 32.6261C125.136 30.2759 125.686 28.8258 125.686 28.2257C125.786 25.7755 126.986 24.5754 129.137 24.7254C130.937 24.8254 132.687 26.4255 134.388 29.5758C135.138 30.9259 136.338 33.8262 138.088 38.2765C139.289 41.4268 140.239 42.9769 140.889 43.0269C141.589 43.0269 141.939 43.377 141.939 44.077ZM130.387 36.6264C130.387 36.1764 130.137 35.4263 129.537 34.3262C128.987 33.2261 128.537 32.6761 128.186 32.6761C127.836 32.6761 127.436 33.1761 126.886 34.1762C126.336 35.1763 126.086 35.9263 126.036 36.3264C126.036 36.4764 126.236 36.6264 126.686 36.7264C127.136 36.8264 127.686 36.9264 128.236 36.9764C128.887 37.0264 129.387 37.0264 129.737 36.9764C130.137 36.9264 130.337 36.7764 130.387 36.6264Z" fill="white"/>
<path d="M172.195 38.2758C171.995 38.8258 171.395 39.1758 170.495 39.3259C169.995 39.4259 169.695 39.5759 169.545 39.7759C168.995 40.576 168.495 41.576 167.944 42.7261C167.444 43.8762 166.844 45.4264 166.144 47.2765C164.944 50.4768 164.094 52.477 163.494 53.277C162.943 54.0771 162.343 54.3771 161.743 54.1271C161.193 53.9271 160.343 52.777 159.193 50.6268C158.193 48.6766 157.192 46.7265 156.192 44.7263C155.042 42.5761 154.192 41.376 153.592 41.176C153.342 41.076 153.092 41.226 152.842 41.526C152.591 41.8261 152.391 42.2761 152.141 42.8762C151.891 43.5262 151.741 44.1763 151.641 44.8263C151.541 45.4764 151.541 46.0764 151.591 46.5265C151.941 46.9265 152.191 47.2765 152.291 47.5265C152.491 47.9266 152.541 48.2766 152.391 48.5766C152.091 49.1267 151.591 49.4267 150.941 49.5267C150.091 49.6767 148.991 49.4767 147.641 48.9767C146.69 48.6266 145.89 48.1766 145.29 47.6766C144.54 47.0265 144.29 46.4265 144.49 45.8764C144.59 45.6264 144.84 45.3764 145.24 45.1763C145.29 45.1263 145.74 44.9763 146.54 44.6763C147.19 43.6762 147.691 42.6761 148.191 41.6761C148.691 40.676 149.091 39.6259 149.491 38.5758C149.891 37.5257 150.141 36.5756 150.341 35.6756C150.541 34.7755 150.641 33.7754 150.691 32.6253C150.641 32.5253 150.391 32.1252 149.841 31.4752C149.491 31.0252 149.341 30.6251 149.491 30.3251C149.741 29.625 150.441 29.275 151.491 29.325C152.291 29.375 153.292 29.575 154.442 30.0251C154.642 30.0751 154.842 30.1751 155.042 30.2251C155.242 30.2751 155.392 30.3751 155.592 30.4251C156.092 30.6251 156.542 30.8751 156.892 31.2252C157.242 31.5752 157.642 32.1252 158.093 32.9753C158.793 34.3754 159.493 35.7756 160.243 37.1257C161.093 38.7258 161.643 39.7759 161.943 40.2759C162.443 41.076 162.843 41.576 163.093 41.626C163.644 41.8261 164.094 41.376 164.544 40.2259C164.694 39.8759 164.794 39.4759 164.844 39.1258C164.944 38.7258 165.044 38.3758 165.044 38.1258C165.094 37.8257 164.894 37.3757 164.444 36.8756C163.994 36.3756 163.844 35.8756 164.044 35.3755C164.294 34.6755 164.944 34.3754 165.994 34.4754C166.644 34.5255 167.444 34.7255 168.344 35.0255C168.545 35.1255 168.695 35.1255 168.695 35.1255C168.745 35.1255 168.795 35.1255 168.795 35.1755C168.845 35.1755 168.945 35.2255 169.045 35.2755C169.145 35.3255 169.295 35.3755 169.445 35.3755C170.245 35.6755 170.895 35.9756 171.295 36.3256C172.195 37.0257 172.395 37.6257 172.195 38.2758Z" fill="white"/>
<path d="M177.296 61.7775C176.896 62.2776 176.146 62.2776 174.996 61.7775C174.295 61.4275 173.295 60.8275 172.095 59.9274L171.345 59.3773C170.145 58.4773 169.295 57.7272 168.894 57.1272C168.244 56.2271 168.194 55.427 168.744 54.7269C168.944 54.4269 169.345 54.3269 169.795 54.4269C170.945 54.5769 171.745 54.3269 172.295 53.6269C172.695 53.0768 173.395 52.2267 174.295 51.1266C175.246 50.0266 175.896 49.1765 176.346 48.5764L176.696 48.1264L176.946 47.7764C177.596 46.8763 178.096 46.1762 178.396 45.6262C178.696 45.0761 178.746 44.3261 178.496 43.326C178.396 42.876 178.396 42.5259 178.546 42.2759C178.946 41.7759 179.496 41.5758 180.247 41.7759C181.197 41.9759 182.447 42.6759 184.097 43.926L184.947 44.5761C186.098 45.4262 186.848 46.1262 187.198 46.5763C187.798 47.3263 187.848 48.0264 187.348 48.6764C187.098 49.0265 186.698 49.2265 186.198 49.2765C185.098 49.3765 184.447 49.5265 184.297 49.7765C183.897 50.3266 183.397 50.9266 182.747 51.6767C181.347 53.3268 180.447 54.3769 180.097 54.777C179.796 55.177 179.346 55.777 178.796 56.6271C178.246 57.4772 177.846 58.0272 177.646 58.3272C177.446 58.6773 177.446 59.2773 177.596 60.0774C177.696 60.7775 177.596 61.3775 177.296 61.7775Z" fill="white"/>
<path d="M196.199 73.9301C194.649 75.3302 192.798 75.8303 190.648 75.4303C188.497 75.0302 186.497 73.8301 184.697 71.83C182.346 69.2297 181.146 67.0295 181.146 65.2294C181.146 63.7793 181.946 62.3292 183.546 60.879C184.347 60.179 185.047 60.079 185.547 60.679C185.797 60.979 185.747 62.0291 185.347 63.8793C184.947 65.6794 185.397 67.2796 186.697 68.6797C187.147 69.1797 187.647 69.5298 188.147 69.6798C188.647 69.8298 189.047 69.7798 189.348 69.5298C189.748 69.1797 189.648 68.1296 189.097 66.3795C188.297 63.9793 187.797 62.2791 187.697 61.3291C187.497 59.2289 188.097 57.5788 189.498 56.3286C190.948 55.0285 192.698 54.5285 194.749 54.8285C196.799 55.1285 198.599 56.1286 200.2 57.8788C200.65 58.3788 201.1 58.9789 201.45 59.6289C201.8 60.279 202.2 60.979 202.6 61.7291C202.7 61.8291 202.9 61.9791 203.15 62.0791C203.45 62.2291 203.65 62.3792 203.8 62.5292C204.3 63.0792 204.4 64.0293 204 65.2794C203.65 66.4295 203.15 67.3296 202.55 67.8796C202.15 68.2797 201.7 68.4297 201.15 68.4797C200.65 68.4797 200.25 68.3297 199.9 67.9796C199.549 67.5796 199.349 66.5795 199.349 64.9294C199.349 63.2792 198.999 62.0791 198.299 61.3291C197.949 60.929 197.549 60.679 197.099 60.579C196.699 60.529 196.349 60.629 195.999 60.929C195.449 61.4291 195.499 62.4792 196.199 64.1293C197.249 66.5795 197.849 68.1796 197.999 68.9297C198.299 70.9299 197.699 72.58 196.199 73.9301Z" fill="white"/>
<path d="M114.484 26.4255C114.584 26.7255 114.384 27.2256 113.984 27.8756C113.634 28.4257 113.384 29.3257 113.184 30.6758L111.684 42.6268C111.484 44.227 111.183 45.2771 110.933 45.8271C110.683 46.3772 110.233 46.6772 109.633 46.8772C108.633 47.1272 107.583 46.5272 106.433 45.1771C106.083 44.727 105.182 43.4269 103.732 41.2267C102.782 39.8266 102.082 39.1766 101.632 39.2766C101.232 39.3766 100.932 40.2766 100.782 41.9768C100.531 44.677 100.331 46.2771 100.231 46.7272C99.8313 48.4773 99.1312 49.4774 98.131 49.7274C97.5309 49.8774 97.0308 49.8775 96.6307 49.6774C96.2306 49.4774 95.7806 49.0274 95.3305 48.3773L86.7789 36.4763C86.3288 35.8263 85.7287 35.4262 85.0785 35.2762C84.6285 35.1762 84.3284 34.8262 84.1784 34.2261C84.0283 33.6261 84.3284 33.026 85.0285 32.526C85.7787 31.976 86.9289 31.5259 88.4792 31.1259C90.3795 30.6758 91.6798 30.4758 92.4299 30.5758C93.1801 30.6258 93.6302 31.0259 93.8302 31.6759C93.8802 31.8759 93.8302 32.276 93.6802 32.876C93.6302 33.1761 93.5801 33.3761 93.6302 33.5761C93.7302 33.9261 94.2303 34.8262 95.2305 36.2263C96.3307 37.8264 97.0308 38.5765 97.3809 38.4765C97.881 38.3265 98.181 37.6264 98.231 36.3263C98.231 35.8763 98.231 35.2262 98.181 34.3762C98.031 33.8261 97.4809 33.2761 96.5307 32.826C95.5805 32.326 95.0804 31.8759 94.9804 31.4259C94.6804 30.2758 96.3307 29.2257 99.9314 28.3256C101.782 27.8756 103.132 27.6756 103.982 27.7256C104.882 27.7756 105.382 28.0756 105.532 28.6757C105.582 28.9257 105.432 29.4257 105.032 30.0258C104.832 30.3258 104.732 30.6258 104.832 30.8759C105.032 31.5759 105.632 32.526 106.733 33.6761C107.833 34.8262 108.483 35.3762 108.733 35.3262C109.083 35.2262 109.333 34.4262 109.533 32.926C109.733 31.3759 109.783 30.3258 109.633 29.7258C109.533 29.3757 109.183 29.1757 108.533 29.1257C107.883 29.0257 107.483 28.7257 107.333 28.0756C107.183 27.5256 107.383 27.0755 107.933 26.6255C108.483 26.2255 109.433 25.8754 110.833 25.5254C112.984 25.0254 114.184 25.3254 114.484 26.4255Z" fill="white"/>
<path d="M26.1173 114.583C25.4672 114.483 25.1172 113.832 25.0171 112.632C24.9671 111.882 25.0671 110.782 25.2672 109.282L25.4172 108.382C25.6173 106.932 25.9173 105.882 26.2174 105.232C26.6675 104.282 27.3176 103.832 28.2177 103.932C28.5678 103.982 28.8179 104.232 29.0179 104.682C29.418 105.732 30.0181 106.282 30.8682 106.432C31.5184 106.532 32.5186 106.682 33.9688 106.932C35.3691 107.182 36.4193 107.382 37.1194 107.482L37.6195 107.582L38.0696 107.632C39.1698 107.782 39.97 107.882 40.5701 107.832C41.1702 107.832 41.8703 107.482 42.5705 106.832C42.9205 106.532 43.2206 106.382 43.4706 106.432C44.1208 106.532 44.5208 106.932 44.7209 107.632C44.9709 108.482 44.9709 109.932 44.7209 111.882L44.5708 112.932C44.3708 114.333 44.1708 115.283 43.9207 115.783C43.5707 116.633 42.9705 116.983 42.1704 116.883C41.7203 116.833 41.3702 116.583 41.1202 116.233C40.5201 115.333 40.07 114.883 39.8199 114.833C39.1698 114.733 38.3697 114.583 37.4695 114.433C35.3691 113.982 34.0689 113.782 33.5688 113.682C33.0687 113.632 32.3685 113.532 31.3683 113.482C30.3682 113.432 29.718 113.382 29.368 113.332C28.9679 113.332 28.4678 113.632 27.8177 114.082C27.1175 114.433 26.5674 114.633 26.1173 114.583Z" fill="white"/>
<path d="M43.2208 144.486C42.6207 144.536 42.0706 144.186 41.5705 143.436C41.3204 143.036 41.0204 142.836 40.7703 142.786C39.8701 142.636 38.7699 142.586 37.4697 142.586C36.2195 142.636 34.6192 142.736 32.7188 142.886C29.3682 143.186 27.2178 143.236 26.3176 143.036C25.3674 142.886 24.9173 142.486 24.8173 141.886C24.7673 141.335 25.4674 140.085 26.8677 138.235C28.1679 136.535 29.5182 134.885 30.8684 133.185C32.3187 131.285 33.0189 130.085 32.9688 129.484C32.9688 129.234 32.7188 129.034 32.3187 128.984C31.9186 128.884 31.4185 128.884 30.8184 128.934C30.1683 128.984 29.5182 129.084 28.8681 129.284C28.2179 129.484 27.7178 129.685 27.3178 129.935C27.1177 130.385 26.9177 130.735 26.7177 130.985C26.4676 131.335 26.1676 131.485 25.8175 131.535C25.2174 131.485 24.7673 131.185 24.3672 130.635C23.9171 129.935 23.6171 128.934 23.517 127.534C23.417 126.534 23.467 125.634 23.7171 124.934C23.9671 124.034 24.4172 123.584 25.0173 123.534C25.2674 123.534 25.6174 123.634 25.9175 123.934C25.9675 123.984 26.2676 124.284 26.8677 124.884C28.0179 125.034 29.1181 125.084 30.2183 125.084C31.3185 125.084 32.4187 125.034 33.5189 124.934C34.6191 124.834 35.5693 124.684 36.4695 124.534C37.3697 124.334 38.3199 124.034 39.32 123.584C39.3701 123.484 39.6201 123.084 39.9702 122.384C40.2202 121.884 40.5203 121.584 40.8203 121.584C41.5705 121.534 42.1206 121.984 42.5206 122.934C42.8207 123.634 43.0207 124.584 43.1208 125.784C43.1208 125.984 43.1708 126.184 43.1708 126.384C43.1708 126.584 43.2208 126.784 43.2708 126.934C43.3208 127.434 43.2708 127.934 43.1208 128.434C42.9707 128.884 42.6207 129.484 42.0706 130.185C41.1204 131.385 40.1702 132.585 39.22 133.785C38.1198 135.135 37.4697 136.085 37.1196 136.535C36.6195 137.335 36.3695 137.835 36.3695 138.135C36.4195 138.685 37.0196 138.935 38.1698 138.835C38.5699 138.785 38.97 138.735 39.32 138.635C39.7201 138.585 40.0202 138.485 40.3202 138.385C40.6203 138.335 40.9203 137.935 41.1704 137.335C41.4704 136.735 41.8205 136.435 42.3206 136.335C43.0207 136.285 43.5708 136.735 43.9209 137.685C44.1209 138.285 44.321 139.035 44.371 139.985C44.371 140.185 44.421 140.335 44.421 140.335C44.421 140.385 44.421 140.385 44.421 140.435C44.421 140.485 44.421 140.585 44.421 140.685C44.421 140.785 44.421 140.935 44.471 141.085C44.521 141.936 44.521 142.586 44.371 143.086C44.321 143.986 43.8709 144.436 43.2208 144.486Z" fill="white"/>
<path d="M56.7728 192.639C56.1727 193.09 55.2225 193.54 53.9723 193.94C52.472 194.39 51.4718 194.34 51.0717 193.84C50.8717 193.59 50.6716 193.29 50.4216 192.94C49.8715 192.039 49.4714 191.439 49.2714 191.189L41.6199 181.839C40.9698 181.038 40.9698 180.388 41.6199 179.888C41.92 179.638 42.4201 179.638 42.9702 179.888C43.5703 180.138 44.1704 180.138 44.7705 179.838C45.4206 179.538 46.0708 179.138 46.8709 178.638C47.6211 178.138 48.4712 177.488 49.5214 176.688C52.422 174.388 54.0723 172.738 54.5224 171.788C54.6224 171.538 54.6224 171.088 54.4223 170.538C54.2223 169.988 54.3223 169.538 54.7224 169.288C55.1725 168.937 55.6226 168.837 56.0226 169.037C56.4227 169.238 57.0228 169.838 57.823 170.788L62.4739 176.438C63.4241 177.588 64.2242 178.488 64.9243 179.138C65.4744 179.588 65.9745 180.088 66.5747 180.538C66.9247 180.988 66.9247 181.639 66.5747 182.489C66.2246 183.339 65.6745 184.089 64.8743 184.739C63.8241 185.589 62.974 185.589 62.3739 184.839C62.0738 184.439 62.0238 183.989 62.2238 183.389C62.7239 182.039 62.1738 180.388 60.6235 178.488C60.0234 177.738 59.5233 177.338 59.1232 177.238C58.7732 177.138 58.3231 177.338 57.773 177.788L55.8726 179.288C55.3725 179.688 55.1725 179.988 55.1725 180.188C55.2225 180.388 55.4725 180.838 55.9726 181.489C56.4227 182.039 57.0729 182.039 57.973 181.539C58.8732 181.038 59.5233 181.039 59.9734 181.489C60.3235 181.889 60.2735 182.489 59.9234 183.189C59.5233 183.889 58.8232 184.689 57.773 185.489C56.7228 186.339 55.7726 186.889 54.9224 187.089C54.0723 187.339 53.4222 187.239 53.0721 186.839C52.822 186.489 52.9721 185.939 53.5722 185.139C54.1723 184.339 54.1723 183.589 53.5222 182.789C53.2221 182.439 52.9721 182.289 52.672 182.389C52.372 182.439 51.9219 182.689 51.3218 183.139C49.9215 184.289 49.1213 185.039 49.0213 185.489C48.8713 185.939 49.2214 186.689 50.0715 187.689C51.6218 189.589 53.1721 190.489 54.7224 190.339C56.3227 190.189 57.2229 190.239 57.4229 190.489C57.673 190.789 57.773 191.189 57.6229 191.589C57.4729 191.889 57.2229 192.289 56.7728 192.639Z" fill="white"/>
<path d="M78.1775 211.541C77.7775 212.091 77.1773 212.291 76.2772 212.141C75.427 212.041 74.4268 211.541 73.3266 210.791C71.5263 209.541 70.7261 208.091 70.8261 206.341C70.8761 205.991 71.2762 204.591 72.1264 202.141C72.6265 200.64 72.4764 199.64 71.6263 199.04C71.3262 198.84 71.0762 198.84 70.7761 198.99C70.5261 199.14 70.276 199.39 70.076 199.74L69.8259 200.04C68.6257 201.741 68.2757 202.991 68.6757 203.891C68.8758 204.291 68.8258 204.691 68.5757 205.041C68.2256 205.541 67.6255 205.691 66.8254 205.491C66.0252 205.241 64.875 204.591 63.3247 203.541C60.4242 201.54 59.374 199.99 60.1241 198.94C60.3241 198.64 60.7242 198.49 61.1743 198.54C62.2745 198.59 63.4247 197.79 64.675 195.99L68.1256 191.14C69.5259 189.139 69.976 187.689 69.4759 186.789C69.2258 186.339 69.1758 185.989 69.4259 185.639C70.076 184.739 71.2762 184.889 73.0766 186.089C73.3766 186.289 73.8267 186.639 74.4268 187.139C75.0269 187.639 75.477 187.939 75.7771 188.189C76.4272 188.589 76.9773 188.989 77.4774 189.289C79.3277 190.39 80.2779 190.99 80.3779 191.09C82.0783 192.24 83.1785 193.59 83.6286 195.04C84.1287 196.49 83.9286 197.89 83.0284 199.14C82.3783 200.09 81.5782 200.69 80.678 200.94C79.7778 201.09 78.9277 201.19 78.0775 201.29C78.6276 201.991 78.9277 202.891 79.0777 203.941C79.2277 205.091 78.8777 206.491 78.0275 208.141C77.5774 208.941 77.5774 209.641 77.9775 210.191C78.3776 210.741 78.4776 211.191 78.1775 211.541ZM76.6772 195.64C77.7274 194.14 77.7274 192.99 76.6772 192.24C76.1271 191.84 75.577 191.94 75.1269 192.59L73.0766 195.24C72.8765 195.54 72.7765 195.74 72.7765 195.94C72.7765 196.14 72.9265 196.29 73.1766 196.49C74.4768 197.39 75.627 197.09 76.6772 195.64Z" fill="white"/>
<path d="M112.183 206.941C112.033 207.491 111.483 207.841 110.583 208.041C110.083 208.141 109.783 208.291 109.633 208.491C109.133 209.291 108.632 210.241 108.182 211.391C107.732 212.541 107.182 214.041 106.582 215.841C105.532 218.992 104.782 220.992 104.232 221.742C103.681 222.542 103.131 222.842 102.581 222.642C102.031 222.492 101.181 221.392 99.9808 219.342C98.9306 217.491 97.8804 215.641 96.8802 213.741C95.68 211.691 94.8298 210.541 94.2297 210.391C93.9797 210.291 93.7296 210.441 93.4796 210.741C93.2295 211.041 93.0295 211.491 92.8294 212.091C92.6294 212.741 92.4794 213.341 92.3794 213.991C92.3293 214.641 92.3293 215.191 92.3794 215.641C92.7294 216.041 92.9795 216.341 93.1295 216.591C93.3295 216.941 93.3795 217.291 93.2795 217.591C93.0295 218.141 92.5294 218.441 91.8793 218.541C91.0791 218.692 89.9789 218.542 88.6787 218.141C87.6785 217.841 86.9283 217.441 86.3282 216.941C85.5781 216.341 85.328 215.791 85.5281 215.241C85.6281 214.991 85.8281 214.741 86.2282 214.541C86.2782 214.541 86.7283 214.341 87.4784 214.041C88.0285 213.041 88.5286 212.041 88.9787 211.091C89.4288 210.091 89.7789 209.041 90.1289 208.041C90.479 206.991 90.729 206.04 90.8791 205.19C91.0291 204.29 91.1291 203.29 91.1291 202.19C91.0791 202.09 90.779 201.74 90.279 201.14C89.9289 200.69 89.7789 200.34 89.8789 200.04C90.1289 199.34 90.729 198.99 91.8293 199.04C92.6294 199.04 93.5796 199.24 94.7298 199.59C94.9298 199.64 95.1299 199.69 95.3299 199.79C95.5299 199.84 95.73 199.89 95.88 199.94C96.3801 200.09 96.8302 200.34 97.1803 200.69C97.5303 200.99 97.9304 201.54 98.3805 202.34C99.1306 203.69 99.8808 204.99 100.631 206.34C101.481 207.841 102.081 208.841 102.381 209.341C102.881 210.141 103.281 210.541 103.581 210.641C104.132 210.841 104.582 210.341 104.932 209.241C105.032 208.891 105.132 208.491 105.182 208.141C105.282 207.741 105.332 207.441 105.332 207.141C105.382 206.841 105.182 206.44 104.682 205.94C104.232 205.44 104.082 204.99 104.232 204.54C104.482 203.84 105.082 203.54 106.132 203.59C106.782 203.64 107.532 203.79 108.432 204.04C108.632 204.09 108.732 204.14 108.782 204.14C108.832 204.14 108.832 204.14 108.882 204.14C108.932 204.14 109.033 204.19 109.133 204.24C109.233 204.29 109.333 204.29 109.533 204.34C110.333 204.59 110.933 204.89 111.383 205.24C112.133 205.74 112.383 206.29 112.183 206.941Z" fill="white"/>
<path d="M136.988 222.292C136.988 222.992 136.538 223.542 135.688 223.792C134.837 224.042 133.487 224.192 131.587 224.142C129.486 224.092 127.886 223.992 126.836 223.792C125.736 223.592 125.186 223.142 125.236 222.392C125.236 221.942 125.636 221.542 126.436 221.192C126.836 221.042 126.986 220.792 127.036 220.542C127.036 219.992 126.736 219.642 126.086 219.442C125.436 219.242 124.535 219.142 123.385 219.142H122.585C121.285 219.142 120.435 219.192 120.085 219.342C119.735 219.492 119.534 219.942 119.534 220.592C119.534 220.792 119.785 221.042 120.385 221.292C120.985 221.542 121.285 221.892 121.285 222.292C121.285 223.392 119.885 223.942 117.134 223.892C115.534 223.842 114.384 223.692 113.733 223.492C113.083 223.242 112.783 222.842 112.783 222.192C112.783 221.842 112.883 221.592 112.983 221.342C113.133 221.142 113.383 221.042 113.783 221.042C114.434 221.042 115.334 220.042 116.484 217.942C117.384 216.342 118.334 214.241 119.334 211.691C120.235 209.391 120.685 207.941 120.685 207.341C120.735 204.941 121.785 203.741 123.935 203.791C125.686 203.841 127.436 205.341 129.186 208.341C129.936 209.641 131.237 212.391 133.087 216.692C134.387 219.692 135.337 221.192 135.988 221.192C136.638 221.292 136.988 221.642 136.988 222.292ZM125.486 215.442C125.486 214.992 125.186 214.291 124.585 213.241C123.985 212.191 123.535 211.691 123.235 211.691C122.935 211.691 122.535 212.191 122.035 213.241C121.535 214.241 121.285 214.942 121.285 215.342C121.285 215.492 121.485 215.642 121.935 215.742C122.385 215.842 122.885 215.942 123.435 215.942C124.085 215.942 124.535 215.942 124.885 215.892C125.336 215.742 125.486 215.592 125.486 215.442Z" fill="white"/>
<path d="M158.493 203.741C158.693 204.341 158.593 204.891 158.342 205.441C158.042 205.991 157.642 206.341 157.092 206.491C156.142 206.741 155.292 206.491 154.542 205.641C153.792 204.791 153.041 204.441 152.291 204.691C152.041 204.741 152.091 205.491 152.391 206.941C152.691 208.391 153.041 209.841 153.492 211.341C153.742 212.292 153.992 213.042 154.242 213.592C154.492 214.142 154.842 214.842 155.392 215.792C155.542 216.042 155.992 216.192 156.742 216.292C157.442 216.342 157.892 216.642 158.042 217.142C158.192 217.742 157.942 218.392 157.192 218.992C156.492 219.592 155.042 220.142 152.941 220.792C151.241 221.242 149.941 221.542 149.041 221.592C147.59 221.642 146.74 221.242 146.49 220.392C146.39 220.042 146.64 219.592 147.19 219.042C147.74 218.492 148.041 218.092 148.041 217.792C147.941 216.842 147.84 215.992 147.69 215.242C147.59 214.492 147.39 213.742 147.19 212.992C146.99 212.292 146.79 211.641 146.69 211.141C146.59 210.641 146.44 210.141 146.34 209.691C146.09 208.741 145.79 208.041 145.54 207.591C145.29 207.141 144.89 206.941 144.49 207.041C144.24 207.141 143.89 207.741 143.39 208.991C142.89 210.241 142.239 210.941 141.489 211.191C141.039 211.341 140.639 211.241 140.239 210.841C139.889 210.491 139.589 210.041 139.439 209.491C139.139 208.591 139.189 207.441 139.489 206.091C139.889 204.591 140.539 203.691 141.489 203.391C141.639 203.341 141.889 203.341 142.239 203.341C142.589 203.341 142.84 203.341 143.04 203.291L152.691 200.491C152.841 200.441 153.041 200.341 153.292 200.141C153.542 199.94 153.692 199.84 153.792 199.79C154.742 199.44 155.692 199.84 156.742 200.991C157.692 201.841 158.242 202.791 158.493 203.741Z" fill="white"/>
<path d="M180.347 206.44C180.697 206.99 180.447 207.69 179.596 208.54C179.046 209.04 178.146 209.74 176.896 210.54L176.096 211.04C174.896 211.84 173.895 212.34 173.195 212.54C172.145 212.84 171.395 212.64 170.895 211.89C170.695 211.59 170.745 211.24 170.945 210.79C171.445 209.79 171.495 208.99 171.045 208.24C170.695 207.69 170.145 206.84 169.395 205.59C168.644 204.39 168.094 203.489 167.744 202.889L167.444 202.439L167.194 202.039C166.594 201.139 166.094 200.489 165.694 200.039C165.294 199.589 164.594 199.289 163.593 199.189C163.093 199.139 162.793 199.039 162.643 198.789C162.293 198.289 162.343 197.689 162.743 197.089C163.243 196.289 164.294 195.389 165.994 194.289L166.894 193.739C168.094 192.989 168.944 192.489 169.495 192.339C170.395 192.089 171.045 192.289 171.495 192.939C171.695 193.289 171.795 193.689 171.645 194.189C171.395 195.239 171.295 195.889 171.445 196.089C171.795 196.639 172.195 197.289 172.645 198.089C173.695 199.939 174.345 201.089 174.646 201.539C174.896 201.939 175.346 202.539 175.946 203.339C176.546 204.14 176.946 204.69 177.146 204.94C177.396 205.24 177.946 205.44 178.746 205.59C179.546 205.79 180.097 206.04 180.347 206.44Z" fill="white"/>
<path d="M196.399 181.939C198.299 183.89 199.15 186.29 198.9 189.14C198.649 191.94 197.399 194.44 195.149 196.591C193.048 198.591 190.648 199.541 187.847 199.491C185.047 199.441 182.646 198.441 180.646 196.341C178.696 194.34 177.746 191.94 177.846 189.14C177.946 186.34 179.046 183.94 181.146 181.939C183.547 179.639 186.247 178.539 189.248 178.639C191.998 178.789 194.349 179.889 196.399 181.939ZM192.948 188.79C191.698 187.54 190.198 186.49 188.298 185.64C185.947 184.59 184.247 184.59 183.197 185.59C182.746 186.04 182.496 186.64 182.596 187.39C182.646 188.14 183.047 188.79 183.697 189.49C184.797 190.64 186.347 191.59 188.298 192.44C190.648 193.49 192.348 193.54 193.298 192.64C193.849 192.14 194.099 191.54 194.049 190.84C193.999 190.14 193.649 189.44 192.948 188.79Z" fill="white"/>
<path d="M203.851 152.336C204.351 152.636 204.601 153.236 204.601 154.136C204.601 154.636 204.701 154.936 204.901 155.136C205.601 155.786 206.452 156.436 207.552 157.087C208.602 157.737 209.952 158.587 211.653 159.487C214.603 161.087 216.403 162.237 217.104 162.887C217.804 163.537 217.954 164.137 217.654 164.687C217.354 165.187 216.103 165.837 213.903 166.587C211.853 167.237 209.802 167.887 207.752 168.537C205.501 169.288 204.201 169.938 203.951 170.438C203.851 170.638 203.901 170.938 204.201 171.238C204.451 171.538 204.851 171.788 205.401 172.088C206.001 172.388 206.602 172.688 207.202 172.888C207.852 173.088 208.402 173.188 208.852 173.188C209.302 172.938 209.652 172.738 209.952 172.638C210.352 172.488 210.702 172.488 211.002 172.688C211.452 173.038 211.703 173.588 211.703 174.238C211.703 175.038 211.352 176.088 210.652 177.288C210.152 178.188 209.602 178.838 209.052 179.338C208.352 179.938 207.702 180.088 207.152 179.788C206.902 179.638 206.752 179.388 206.602 178.938C206.602 178.838 206.502 178.438 206.302 177.638C205.451 176.888 204.551 176.188 203.651 175.588C202.751 174.988 201.801 174.388 200.85 173.888C199.9 173.338 199 172.938 198.2 172.588C197.35 172.288 196.4 171.988 195.299 171.788C195.199 171.838 194.799 172.038 194.099 172.438C193.599 172.738 193.199 172.788 192.949 172.638C192.299 172.288 192.099 171.588 192.299 170.538C192.449 169.788 192.799 168.887 193.399 167.837C193.499 167.637 193.599 167.487 193.699 167.287C193.799 167.137 193.899 166.937 193.949 166.787C194.199 166.337 194.549 165.937 194.899 165.637C195.299 165.337 195.9 165.037 196.75 164.787C198.2 164.337 199.65 163.837 201.101 163.387C202.751 162.837 203.851 162.437 204.401 162.237C205.251 161.887 205.751 161.587 205.901 161.337C206.151 160.837 205.801 160.337 204.751 159.737C204.401 159.537 204.051 159.387 203.701 159.287C203.351 159.137 203.001 158.987 202.751 158.937C202.451 158.837 202.001 158.987 201.451 159.337C200.9 159.687 200.4 159.737 199.95 159.537C199.3 159.187 199.1 158.537 199.35 157.537C199.5 156.886 199.8 156.186 200.25 155.386C200.35 155.186 200.4 155.086 200.4 155.086C200.4 155.036 200.45 155.036 200.45 155.036C200.5 154.986 200.55 154.886 200.6 154.786C200.65 154.686 200.7 154.586 200.8 154.436C201.201 153.686 201.601 153.186 202.001 152.786C202.651 152.136 203.251 151.986 203.851 152.336Z" fill="white"/>
<path d="M223.304 129.835C224.005 129.935 224.505 130.435 224.655 131.285C224.805 132.135 224.805 133.535 224.505 135.385C224.205 137.436 223.905 138.986 223.555 140.036C223.254 141.086 222.704 141.586 221.954 141.486C221.504 141.436 221.104 140.986 220.904 140.136C220.804 139.736 220.604 139.536 220.304 139.486C219.754 139.386 219.354 139.686 219.104 140.286C218.854 140.886 218.654 141.736 218.454 142.886L218.354 143.686C218.154 144.986 218.154 145.836 218.254 146.186C218.404 146.536 218.754 146.786 219.454 146.886C219.654 146.886 219.954 146.686 220.254 146.136C220.554 145.586 220.954 145.336 221.354 145.386C222.454 145.536 222.854 146.986 222.454 149.687C222.204 151.287 221.954 152.387 221.604 152.987C221.304 153.587 220.854 153.837 220.254 153.737C219.904 153.687 219.654 153.587 219.454 153.437C219.254 153.237 219.204 152.987 219.254 152.587C219.354 151.937 218.404 150.937 216.453 149.537C214.953 148.437 213.003 147.286 210.552 145.986C208.352 144.836 206.951 144.186 206.401 144.136C204.001 143.786 202.951 142.586 203.251 140.536C203.501 138.786 205.201 137.286 208.402 135.935C209.802 135.335 212.752 134.385 217.253 133.135C220.404 132.235 222.054 131.485 222.154 130.835C222.254 130.035 222.654 129.735 223.304 129.835ZM215.053 140.286C214.603 140.236 213.853 140.436 212.752 140.886C211.652 141.336 211.052 141.736 211.002 142.036C210.952 142.336 211.402 142.786 212.352 143.436C213.303 144.036 214.003 144.386 214.353 144.436C214.503 144.436 214.653 144.236 214.803 143.836C214.953 143.386 215.053 142.886 215.153 142.386C215.253 141.786 215.303 141.286 215.303 140.936C215.303 140.486 215.203 140.336 215.053 140.286Z" fill="white"/>
<path d="M217.854 105.733C218.854 105.683 219.854 105.783 220.905 106.133C222.105 106.533 222.755 107.033 222.855 107.683C222.955 108.083 222.955 108.383 222.955 108.533C222.955 108.683 222.905 109.083 222.755 109.683L224.805 120.034C225.005 120.984 224.955 121.634 224.655 122.084C224.455 122.384 224.205 122.584 223.755 122.634C223.405 122.684 222.805 122.434 222.055 121.834C221.255 121.234 220.355 121.034 219.204 121.234L215.004 121.984C213.603 122.234 212.503 122.484 211.603 122.734C210.753 122.934 209.903 123.234 209.202 123.534C209.202 124.034 209.152 124.484 208.952 124.884C208.752 125.234 208.452 125.484 208.052 125.584C207.202 125.734 206.452 125.234 205.852 124.034C205.402 123.184 205.052 122.034 204.802 120.534C204.502 119.034 204.352 117.834 204.402 116.934C204.452 115.534 204.852 114.784 205.602 114.634C206.152 114.534 206.652 114.784 207.202 115.334C207.352 115.534 207.602 115.834 207.852 116.234C208.002 116.284 208.652 116.234 209.803 116.034C210.953 115.834 212.153 115.634 213.453 115.384C214.604 115.184 215.704 114.934 216.654 114.784C217.604 114.584 218.454 114.384 219.154 114.233C219.654 114.133 219.955 113.883 220.005 113.433C220.055 113.183 220.005 112.683 219.905 112.033C219.604 110.533 218.804 109.583 217.504 109.133C216.204 108.733 215.554 108.333 215.454 108.033C215.354 107.433 215.554 106.933 216.054 106.483C216.604 106.033 217.204 105.783 217.854 105.733Z" fill="white"/>
<path d="M48.9719 167.338C48.4218 167.588 47.8216 167.588 47.2715 167.388C46.6714 167.188 46.3214 166.788 46.0713 166.238C45.6712 165.338 45.8713 164.438 46.6714 163.638C47.4716 162.787 47.6716 162.037 47.4216 161.337C47.3216 161.137 46.5714 161.237 45.1711 161.687C43.7709 162.137 42.3206 162.637 40.8703 163.188C39.9702 163.538 39.22 163.888 38.7199 164.138C38.2198 164.438 37.5197 164.888 36.6195 165.488C36.3695 165.638 36.2695 166.138 36.2695 166.838C36.2695 167.588 36.0694 168.038 35.5693 168.238C34.9692 168.488 34.3191 168.288 33.669 167.638C33.0188 166.988 32.2687 165.638 31.4185 163.638C30.7684 162.037 30.3683 160.737 30.2183 159.887C30.0183 158.487 30.3183 157.587 31.1685 157.237C31.5186 157.087 32.0186 157.287 32.6188 157.787C33.2189 158.287 33.669 158.537 33.969 158.487C34.9192 158.287 35.7694 158.137 36.4695 157.887C37.2196 157.687 37.9198 157.437 38.7199 157.137C39.4201 156.837 40.0202 156.637 40.5203 156.437C41.0204 156.237 41.4704 156.087 41.9205 155.937C42.8207 155.587 43.4708 155.237 43.9209 154.937C44.371 154.587 44.471 154.237 44.321 153.837C44.221 153.587 43.5208 153.287 42.2706 152.937C40.9703 152.587 40.1702 152.037 39.9201 151.287C39.7701 150.836 39.8201 150.436 40.1202 150.036C40.4202 149.636 40.8703 149.336 41.3704 149.086C42.2706 148.736 43.4208 148.636 44.7711 148.836C46.3214 149.036 47.3216 149.586 47.6716 150.536C47.7216 150.686 47.7716 150.936 47.7716 151.287C47.7716 151.637 47.8216 151.887 47.9217 152.037L51.7724 161.287C51.8224 161.437 51.9724 161.637 52.1725 161.837C52.4225 162.037 52.5725 162.187 52.5725 162.287C53.0226 163.188 52.7226 164.188 51.6724 165.338C50.7722 166.338 49.922 166.988 48.9719 167.338Z" fill="white"/>
<path d="M102.331 185.838C98.8808 177.938 98.6308 173.887 98.9308 165.037C99.2809 154.436 99.2809 138.985 98.9308 128.334C98.8808 127.084 100.281 125.783 115.084 114.633L125.586 106.532L125.886 106.482C126.936 106.282 126.936 106.282 139.939 134.934L156.692 171.737C158.242 175.138 158.392 182.188 156.142 186.739C163.793 183.038 170.644 177.988 176.446 171.937C175.345 172.037 174.645 171.687 174.195 171.337C172.095 170.237 169.844 165.787 169.744 165.587L163.543 152.136C155.442 134.634 146.34 114.833 139.338 98.1811L139.038 97.4811L139.489 96.931C140.489 95.7809 145.39 91.8306 153.391 85.4801C159.292 80.7797 165.443 75.9293 167.994 73.5791L168.144 73.4291L168.294 73.3291C169.994 72.529 171.795 72.379 173.645 72.829C167.494 67.0785 160.292 62.3781 152.391 59.0779C152.441 59.5279 152.541 59.9779 152.641 60.478L152.791 61.4281L152.891 61.7781C153.141 62.7782 153.441 64.1783 153.041 65.4784L151.941 67.6786C151.941 67.6786 149.64 69.7288 149.59 69.7288L125.736 88.5303L100.431 108.632L99.731 108.332C98.9309 107.982 98.9308 107.982 98.8308 88.7304C98.8308 88.7304 98.9309 63.5782 98.9809 63.4282C99.3309 61.078 100.481 59.0779 102.131 57.4277C94.1299 60.178 86.7785 64.3283 80.3273 69.5287C80.3773 69.5287 80.4774 69.5287 80.5274 69.5787C81.6776 69.9788 83.1779 71.1289 83.5279 74.2791C84.5281 82.4798 84.8782 88.6303 84.7282 96.181C84.7282 96.781 85.1782 157.836 84.6781 168.337C84.6781 171.487 83.828 173.737 82.2277 175.138C80.9274 176.238 79.4272 176.488 78.377 176.338C86.9786 183.838 97.4306 189.339 108.933 191.989C105.832 189.839 102.932 187.239 102.331 185.838Z" fill="white"/>
<path d="M191.949 156.236C201.851 136.384 200.901 108.782 190.399 89.6303C179.397 68.3785 157.142 53.2272 134.188 50.977C119.285 49.5269 105.683 52.1271 92.9302 57.8276C75.1768 65.4283 61.4742 81.5796 55.5231 99.1811C49.9721 115.732 49.472 136.634 56.4733 152.186C62.6745 167.237 74.0266 179.788 87.9793 187.839C88.0293 187.889 88.1293 187.939 88.2293 187.989C89.5796 188.789 90.9798 189.489 92.3801 190.189C92.9302 190.489 93.4803 190.689 94.0304 190.939C94.8806 191.339 95.6807 191.689 96.5309 192.039C97.5311 192.439 98.4813 192.839 99.4814 193.189C99.5315 193.239 99.5815 193.239 99.6315 193.239C105.333 195.289 111.334 196.689 117.535 197.289C118.385 197.389 119.235 197.439 120.085 197.489C121.486 197.539 122.936 197.639 124.336 197.639C152.892 198.039 179.747 180.788 191.949 156.236ZM181.747 82.0297C184.948 85.98 188.198 91.5805 190.749 97.4309C194.099 105.582 195.95 114.432 195.95 123.783C195.95 140.035 190.349 154.986 180.897 166.937C179.247 168.287 177.446 169.437 176.246 169.587C175.996 169.637 175.796 169.587 175.696 169.487L175.546 169.337L175.396 169.237C174.546 168.837 172.945 166.437 171.995 164.537L165.844 151.085C157.892 133.884 148.941 114.382 141.989 97.931C143.84 96.2308 149.741 91.5304 155.042 87.3301C160.843 82.7297 166.844 77.9793 169.595 75.5291C174.196 73.4289 179.197 78.6794 181.747 82.0297ZM110.283 55.2274C115.084 54.2273 120.035 53.6773 125.136 53.6773C133.238 53.6773 140.989 55.0274 148.241 57.5276C148.741 57.7776 149.241 58.0276 149.741 58.3277C149.941 58.8277 150.191 60.2278 150.291 60.8779L150.491 61.978L150.591 62.378C150.691 62.878 150.891 63.6781 150.891 64.2282C150.891 64.3782 150.891 64.5282 150.841 64.6282C150.841 64.6282 150.241 65.7783 150.041 66.1783C149.741 66.4283 148.091 67.8785 148.091 67.8785C148.141 67.8285 124.336 86.63 124.336 86.63C124.336 86.63 104.782 102.081 101.432 104.682C101.382 99.7311 101.282 87.7301 101.282 77.6293C101.282 71.6788 101.332 66.3783 101.432 63.6281C102.032 59.7278 105.783 56.8775 110.283 55.2274ZM73.3765 171.487C61.5743 158.936 54.3729 142.185 54.3729 123.733C54.3729 103.431 63.1246 85.1299 77.0772 72.3288C78.0774 71.8788 79.0276 71.6788 79.7277 71.8788C80.4778 72.1288 80.9279 73.0289 81.128 74.579C82.0781 82.6797 82.4282 88.7302 82.3282 96.1808C82.3282 96.8309 82.7783 157.786 82.2782 168.237C82.2782 170.637 81.7281 172.387 80.6779 173.237C79.9277 173.887 79.0276 173.937 78.6775 173.887C76.9772 173.687 75.1768 172.837 73.3765 171.487ZM78.3774 176.338C79.4276 176.438 80.9279 176.238 82.2282 175.137C83.8785 173.737 84.6786 171.487 84.6786 168.337C85.1787 157.836 84.7286 96.8309 84.7286 96.1808C84.8287 88.6302 84.4786 82.4797 83.5284 74.279C83.1783 71.1287 81.6781 69.9786 80.5278 69.5786C80.4778 69.5786 80.3778 69.5786 80.3278 69.5286C86.729 64.3282 94.1304 60.1778 102.132 57.4276C100.482 59.0777 99.3314 61.0779 98.9813 63.4281C98.9813 63.5781 98.8313 88.6802 98.8313 88.6802C98.9313 107.882 98.9313 107.882 99.7315 108.282L100.382 108.582L125.786 88.5302L149.641 69.6786C149.691 69.6286 151.991 67.6284 151.991 67.6284L153.092 65.4783C153.542 64.1782 153.192 62.778 152.942 61.778L152.842 61.4279L152.692 60.4778C152.591 59.9778 152.541 59.5278 152.441 59.0777C160.343 62.378 167.544 67.0784 173.695 72.8289C171.845 72.3788 170.045 72.5289 168.294 73.3289L168.144 73.4289L167.994 73.5289C165.394 75.8791 159.293 80.7295 153.392 85.4299C145.39 91.7805 140.489 95.6808 139.489 96.8809L139.039 97.4309L139.339 98.131C146.34 114.782 155.442 134.634 163.544 152.136L169.745 165.587C169.845 165.787 172.095 170.237 174.196 171.337C174.646 171.737 175.346 172.087 176.496 171.937C170.695 177.988 163.844 183.038 156.192 186.738C158.443 182.188 158.293 175.137 156.742 171.737L139.989 134.934C126.987 106.232 126.987 106.232 125.936 106.482L125.636 106.532L115.134 114.632C100.332 125.783 98.9313 127.083 98.9813 128.334C99.2814 138.984 99.2814 154.436 98.9313 165.037C98.6313 173.887 98.8813 177.938 102.332 185.838C102.982 187.238 105.833 189.889 108.933 192.039C97.431 189.339 86.9791 183.838 78.3774 176.338ZM116.035 192.989C112.384 192.189 105.283 186.388 104.582 184.838C101.982 178.938 101.282 175.537 101.282 169.337C101.282 168.037 101.282 166.637 101.382 165.037C101.582 159.536 101.632 152.686 101.632 145.885C101.632 139.684 101.582 133.584 101.382 128.484C102.482 127.083 110.884 120.733 116.585 116.433C116.585 116.433 123.786 110.882 125.686 109.432C127.387 113.032 132.438 124.133 137.739 135.834L154.492 172.687C155.092 174.037 155.442 176.038 155.442 178.188C155.442 182.288 154.242 186.888 151.741 188.139C148.141 189.939 139.389 192.589 130.787 193.589C128.887 193.739 127.037 193.839 125.086 193.839C122.736 193.839 120.385 193.689 118.085 193.489C117.385 193.389 116.685 193.239 116.035 192.989Z" fill="#E8A958"/>
</svg>
